<?xml version="1.0" encoding="UTF-8"?>
<svg version="1.1" xmlns="http://www.w3.org/2000/svg" width="1024" height="1024">
  <path d="M0 0 C0.33 1.32 0.66 2.64 1 4 C0.14664062 4.15855469 -0.70671875 4.31710937 -1.5859375 4.48046875 C-4.33014851 4.99253287 -7.07347519 5.50852848 -9.81640625 6.02734375 C-13.5086883 6.7245585 -17.20454316 7.39912051 -20.90234375 8.06640625 C-44.13761598 12.31897757 -66.72030123 18.14360033 -89 26 C-89.33 29.63 -89.66 33.26 -90 37 C-88.67871094 36.56429687 -87.35742188 36.12859375 -85.99609375 35.6796875 C-67.11242859 29.51697079 -48.2041817 24.45711618 -28.6875 20.75 C-26.75898193 20.38056274 -26.75898193 20.38056274 -24.79150391 20.00366211 C-8.67528631 17.03908911 7.24151563 15.5855735 23.625 15.625 C24.44639465 15.62521149 25.26778931 15.62542297 26.11407471 15.62564087 C45.76985024 15.67584263 64.49811749 18.12959412 83 25 C84.19753906 25.44085938 85.39507812 25.88171875 86.62890625 26.3359375 C95.36582692 29.80768863 102.56192377 34.32146868 110 40 C110.7734375 40.5878125 111.546875 41.175625 112.34375 41.78125 C122.65439731 50.18839319 129.71596638 62.92144351 132 76 C132.29011094 79.44260369 132.33434627 82.85891717 132.3125 86.3125 C132.30686035 87.24529785 132.3012207 88.1780957 132.29541016 89.13916016 C132.17669668 95.86586517 131.4661627 101.70066307 129 108 C128.56300781 109.18851562 128.12601563 110.37703125 127.67578125 111.6015625 C122.41312418 125.59170965 115.05781114 137.21755871 106 149 C105.56123535 149.57476074 105.1224707 150.14952148 104.67041016 150.74169922 C99.4217109 157.57324387 99.4217109 157.57324387 97 160 C94 160 94 160 92 159 C86.74255316 158.30882703 82.78325235 158.91545513 78 161.1875 C74.1817046 162.88320262 72.21191259 163.20847591 68.25 161.8125 C66.83323988 161.20855252 65.41656642 160.60440167 64 160 C62.00914554 159.61580002 60.01112687 159.25783678 58 159 C57.98582031 158.26394531 57.97164063 157.52789062 57.95703125 156.76953125 C57.69081007 150.36548924 57.69081007 150.36548924 54.625 144.875 C49.2280297 141.02002122 43.39213646 141.36858164 37 142 C31.48957461 143.31534165 28.08650825 145.27411513 25.03515625 150.12109375 C23.8773162 152.39370321 22.78259917 154.70002191 21.765625 157.0390625 C19.63044328 160.61974334 17.76393082 161.37761603 14 163 C11.65674336 165.55139853 11.65674336 165.55139853 10 168 C7.0280615 166.87548273 4.66559313 165.77706209 2 164 C-0.67145537 164.80161791 -0.67145537 164.80161791 -3 166 C-2.32453125 166.556875 -1.6490625 167.11375 -0.953125 167.6875 C5.58136099 173.27769611 11.298814 178.89494437 12.19287109 187.9543457 C12.81601195 205.13603857 10.41947752 218.59897749 -1.6171875 231.76953125 C-8.27905638 238.06483797 -17.1704814 241.1674584 -26 243 C-26 243.33 -26 243.66 -26 244 C-29.63 244 -33.26 244 -37 244 C-37.66 245.65 -38.32 247.3 -39 249 C-43.2870341 251.69847292 -48.24631417 253.27478482 -53 255 C-53.84965332 255.3084082 -54.69930664 255.61681641 -55.57470703 255.93457031 C-111.40514866 275.88040574 -182.34069171 290.31583136 -238.40234375 263.82421875 C-254.11626194 256.04426826 -265.95238254 245.25322632 -273 229 C-273.35320312 228.20207031 -273.70640625 227.40414062 -274.0703125 226.58203125 C-279.8056799 210.65313271 -276.74188921 190.7276334 -269.94287109 175.65673828 C-262.28982546 159.45697927 -252.09850127 145.84739844 -240.29980469 132.47900391 C-239.21105557 131.24015301 -238.13865473 129.98696032 -237.0703125 128.73046875 C-228.90146948 119.1350096 -219.83758766 110.84311783 -210 103 C-207.80336219 101.19841232 -205.61944907 99.3818329 -203.4375 97.5625 C-202.44621094 96.73878906 -201.45492187 95.91507812 -200.43359375 95.06640625 C-198.01690819 93.07112614 -198.01690819 93.07112614 -196 91 C-196.3185177 88.89179203 -196.3185177 88.89179203 -197 87 C-197.62648438 87 -198.25296875 87 -198.8984375 87 C-201.93229167 87 -204.96614583 87 -208 87 C-209.74878487 88.17089921 -211.44848979 89.41527086 -213.125 90.6875 C-213.64344482 91.07671631 -214.16188965 91.46593262 -214.69604492 91.86694336 C-217.91881726 94.31387184 -221.03316515 96.85878441 -224.10546875 99.4921875 C-224.80333496 100.08298096 -225.50120117 100.67377441 -226.22021484 101.2824707 C-227.5939056 102.45114974 -228.95546963 103.63426512 -230.30322266 104.83276367 C-231.26107666 105.6445105 -231.26107666 105.6445105 -232.23828125 106.47265625 C-232.79555908 106.96000244 -233.35283691 107.44734863 -233.92700195 107.94946289 C-238.86329505 110.45103741 -244.64724319 108.82918123 -249.80859375 107.6875 C-251.04931641 107.41679687 -252.29003906 107.14609375 -253.56835938 106.8671875 C-254.84517578 106.58101563 -256.12199219 106.29484375 -257.4375 106 C-258.7544106 105.71026995 -260.07146693 105.42120142 -261.38867188 105.1328125 C-264.59393915 104.42835815 -267.79757213 103.71723193 -271 103 C-270.41109293 98.44253753 -270.41109293 98.44253753 -268.61157227 96.50537109 C-267.72296509 95.89556396 -267.72296509 95.89556396 -266.81640625 95.2734375 C-266.14577148 94.80486328 -265.47513672 94.33628906 -264.78417969 93.85351562 C-264.05102539 93.36560547 -263.31787109 92.87769531 -262.5625 92.375 C-261.4182959 91.59286133 -261.4182959 91.59286133 -260.25097656 90.79492188 C-215.51469422 60.5316045 -215.51469422 60.5316045 -207.5625 61.20703125 C-206.716875 61.40683594 -205.87125 61.60664063 -205 61.8125 C-203.7315625 62.10060547 -203.7315625 62.10060547 -202.4375 62.39453125 C-201.00764035 62.74970472 -199.58011534 63.11505062 -198.15917969 63.50439453 C-195.77212398 64.05230533 -193.45447098 64.31209107 -191.015625 64.53515625 C-190.08105469 64.62216797 -189.14648438 64.70917969 -188.18359375 64.79882812 C-187.21550781 64.88583984 -186.24742187 64.97285156 -185.25 65.0625 C-184.26644531 65.15337891 -183.28289062 65.24425781 -182.26953125 65.33789062 C-179.84660809 65.56136412 -177.42333607 65.78104946 -175 66 C-175.495 61.545 -175.495 61.545 -176 57 C-179.63 55.68 -183.26 54.36 -187 53 C-186 49 -186 49 -183.77294922 47.5871582 C-182.79342285 47.16265381 -181.81389648 46.73814941 -180.8046875 46.30078125 C-179.70672852 45.81770508 -178.60876953 45.33462891 -177.47753906 44.83691406 C-175.69428223 44.0823291 -175.69428223 44.0823291 -173.875 43.3125 C-172.66553711 42.79010742 -171.45607422 42.26771484 -170.20996094 41.72949219 C-166.48422211 40.1265879 -162.74363798 38.56053839 -159 37 C-157.87174805 36.52675293 -156.74349609 36.05350586 -155.58105469 35.56591797 C-152.47832654 34.2741261 -149.36746732 33.00575336 -146.25 31.75 C-144.85177002 31.1763269 -144.85177002 31.1763269 -143.42529297 30.59106445 C-138.48091998 28.64989654 -134.39790717 27.29240917 -129 28 C-126.63671875 29.20703125 -126.63671875 29.20703125 -124.6875 30.8125 C-124.03136719 31.33457031 -123.37523437 31.85664063 -122.69921875 32.39453125 C-121 34 -121 34 -119 37 C-122.96 38.98 -126.92 40.96 -131 43 C-124.4 43.33 -117.8 43.66 -111 44 C-111 37.07 -111 30.14 -111 23 C-117.93 23 -124.86 23 -132 23 C-132 16.07 -132 9.14 -132 2 C-125.07 2 -118.14 2 -111 2 C-111 7.94 -111 13.88 -111 20 C-108.26009766 19.22076172 -108.26009766 19.22076172 -105.46484375 18.42578125 C-71.83438257 8.94493816 -35.19533469 -1.22064745 0 0 Z " fill="#F0BB23" transform="translate(389,300)"/>
  <path d="M0 0 C35.64 0 71.28 0 108 0 C108 6.93 108 13.86 108 21 C121.86 21 135.72 21 150 21 C150 28.59 150 36.18 150 44 C143.07 44 136.14 44 129 44 C129 50.93 129 57.86 129 65 C135.93 65 142.86 65 150 65 C150 71.93 150 78.86 150 86 C143.07 86 136.14 86 129 86 C129 93.26 129 100.52 129 108 C122.07 108 115.14 108 108 108 C108.03958259 114.5370285 108.03958259 114.5370285 108.09008789 121.07397461 C108.09383423 122.28839233 108.09383423 122.28839233 108.09765625 123.52734375 C108.10289307 124.35999756 108.10812988 125.19265137 108.11352539 126.05053711 C108 128 108 128 107 129 C105.43827255 129.08685603 103.87270656 129.10702219 102.30859375 129.09765625 C101.45837646 129.09515869 100.60815918 129.09266113 99.73217773 129.09008789 C98.64493408 129.08098389 97.55769043 129.07187988 96.4375 129.0625 C92.993125 129.041875 89.54875 129.02125 86 129 C86 135.93 86 142.86 86 150 C79.07 150 72.14 150 65 150 C65 156.93 65 163.86 65 171 C71.5370285 170.96041741 71.5370285 170.96041741 78.07397461 170.90991211 C79.28839233 170.90616577 79.28839233 170.90616577 80.52734375 170.90234375 C81.35999756 170.89710693 82.19265137 170.89187012 83.05053711 170.88647461 C85 171 85 171 86 172 C86.08685603 173.56172745 86.10702219 175.12729344 86.09765625 176.69140625 C86.09443359 177.63564453 86.09121094 178.57988281 86.08789062 179.55273438 C86.07951172 180.54595703 86.07113281 181.53917969 86.0625 182.5625 C86.05798828 183.55958984 86.05347656 184.55667969 86.04882812 185.58398438 C86.03700007 188.05604849 86.02051849 190.52799518 86 193 C82.68751813 193.02888146 79.37506833 193.04675799 76.0625 193.0625 C75.11697266 193.07087891 74.17144531 193.07925781 73.19726562 193.08789062 C72.29814453 193.09111328 71.39902344 193.09433594 70.47265625 193.09765625 C69.64000244 193.10289307 68.80734863 193.10812988 67.94946289 193.11352539 C66 193 66 193 65 192 C64.84379445 190.58672053 64.74943827 189.1664541 64.68359375 187.74609375 C64.64548584 186.9770874 64.60737793 186.20808105 64.56811523 185.41577148 C64.52501221 184.43294189 64.48190918 183.4501123 64.4375 182.4375 C64.2209375 177.7659375 64.2209375 177.7659375 64 173 C54.1 172.505 54.1 172.505 44 172 C44 178.6 44 185.2 44 192 C53.9 192.495 53.9 192.495 64 193 C64 199.93 64 206.86 64 214 C57.4 214 50.8 214 44 214 C44 220.93 44 227.86 44 235 C50.5370285 234.96041741 50.5370285 234.96041741 57.07397461 234.90991211 C58.28839233 234.90616577 58.28839233 234.90616577 59.52734375 234.90234375 C60.35999756 234.89710693 61.19265137 234.89187012 62.05053711 234.88647461 C64 235 64 235 65 236 C65.08700342 237.63472882 65.10701063 239.27314055 65.09765625 240.91015625 C65.09443359 241.89951172 65.09121094 242.88886719 65.08789062 243.90820312 C65.07951172 244.94912109 65.07113281 245.99003906 65.0625 247.0625 C65.05798828 248.10728516 65.05347656 249.15207031 65.04882812 250.22851562 C65.03699927 252.81903454 65.01906319 255.40952422 65 258 C58.07 258 51.14 258 44 258 C44 264.93 44 271.86 44 279 C47.031875 278.979375 50.06375 278.95875 53.1875 278.9375 C64.15526683 278.90169187 75.04887682 279.40402051 86 280 C86 272.74 86 265.48 86 258 C92.93 258 99.86 258 107 258 C107.02682987 261.64588169 107.04675569 265.29156846 107.0625 268.9375 C107.07087891 269.97841797 107.07925781 271.01933594 107.08789062 272.09179688 C107.09111328 273.08115234 107.09433594 274.07050781 107.09765625 275.08984375 C107.10289307 276.00628662 107.10812988 276.92272949 107.11352539 277.86694336 C107 280 107 280 106 281 C104.5112814 281.08669432 103.018555 281.10703494 101.52734375 281.09765625 C100.71773193 281.09515869 99.90812012 281.09266113 99.07397461 281.09008789 C98.03893799 281.08098389 97.00390137 281.07187988 95.9375 281.0625 C92.658125 281.041875 89.37875 281.02125 86 281 C86 287.93 86 294.86 86 302 C79.07 302 72.14 302 65 302 C65 308.93 65 315.86 65 323 C71.93 323 78.86 323 86 323 C86 329.93 86 336.86 86 344 C79.07 344 72.14 344 65 344 C67.7552086 341.2447914 69.22928805 340.2659514 72.6875 338.8125 C73.49574219 338.46832031 74.30398438 338.12414062 75.13671875 337.76953125 C75.75160156 337.51558594 76.36648438 337.26164062 77 337 C74.36136247 333.3840893 72.13033518 330.82503182 68 329 C60.71197221 328.03159083 54.58328995 331.16357171 47.9375 333.875 C46.69763552 334.37335985 45.45764382 334.87140332 44.2175293 335.36914062 C36.19183167 338.61056167 28.22094665 341.98204308 20.3125 345.5 C19.38107178 345.90847168 18.44964355 346.31694336 17.48999023 346.73779297 C16.64380127 347.12338379 15.7976123 347.50897461 14.92578125 347.90625 C14.18755127 348.23947266 13.44932129 348.57269531 12.6887207 348.91601562 C10.66222815 349.96741746 10.66222815 349.96741746 10 353 C11.17369141 353.30744141 11.17369141 353.30744141 12.37109375 353.62109375 C13.88896484 354.02521484 13.88896484 354.02521484 15.4375 354.4375 C16.44683594 354.70433594 17.45617187 354.97117187 18.49609375 355.24609375 C21 356 21 356 22 357 C22.07179964 358.51928038 22.08392007 360.04167482 22.0625 361.5625 C22.05347656 362.38878906 22.04445313 363.21507812 22.03515625 364.06640625 C22.02355469 364.70449219 22.01195312 365.34257812 22 366 C0.23833225 365.45148839 0.23833225 365.45148839 -7.94140625 362.5234375 C-17.01450461 360.21642577 -32.17461637 372.34886726 -39.82421875 376.8515625 C-47.99546208 381.75462259 -55.91298124 387.0692121 -63.76367188 392.46777344 C-65.20677184 393.45651747 -66.66063937 394.42980991 -68.12695312 395.38378906 C-71.70116755 397.6077217 -71.70116755 397.6077217 -73.68457031 401.14599609 C-73.78866211 401.75781738 -73.89275391 402.36963867 -74 403 C-72.77990234 403.14695312 -72.77990234 403.14695312 -71.53515625 403.296875 C-61.81074244 404.56575239 -52.52246522 406.65841019 -43 409 C-43 415.93 -43 422.86 -43 430 C-48.61 430 -54.22 430 -60 430 C-59.34 428.02 -58.68 426.04 -58 424 C-59.98 423.67 -61.96 423.34 -64 423 C-64 418.05 -64 413.1 -64 408 C-70.93 408 -77.86 408 -85 408 C-85 401.07 -85 394.14 -85 387 C-78.07 387 -71.14 387 -64 387 C-64 380.07 -64 373.14 -64 366 C-56.74 366 -49.48 366 -42 366 C-42 358.74 -42 351.48 -42 344 C-35.07 344 -28.14 344 -21 344 C-21 337.07 -21 330.14 -21 323 C-14.07 322.67 -7.14 322.34 0 322 C0.33 315.4 0.66 308.8 1 302 C-6.26 302 -13.52 302 -21 302 C-21 295.07 -21 288.14 -21 281 C-6.62757219 280.21246971 7.60574757 279.90713386 22 280 C22 272.74 22 265.48 22 258 C14.74 258 7.48 258 0 258 C0 264.93 0 271.86 0 279 C-6.93 279 -13.86 279 -21 279 C-21 271.74 -21 264.48 -21 257 C-27.93 257 -34.86 257 -42 257 C-42 249.74 -42 242.48 -42 235 C-35.07 235 -28.14 235 -21 235 C-21 228.07 -21 221.14 -21 214 C-15.8334375 213.9690625 -15.8334375 213.9690625 -10.5625 213.9375 C-9.47525635 213.928396 -8.3880127 213.91929199 -7.26782227 213.90991211 C-5.99249634 213.90616577 -5.99249634 213.90616577 -4.69140625 213.90234375 C-3.81685791 213.89710693 -2.94230957 213.89187012 -2.04125977 213.88647461 C0 214 0 214 1 215 C1.08669432 216.4887186 1.10703494 217.981445 1.09765625 219.47265625 C1.09515869 220.28226807 1.09266113 221.09187988 1.09008789 221.92602539 C1.08098389 222.96106201 1.07187988 223.99609863 1.0625 225.0625 C1.041875 228.341875 1.02125 231.62125 1 235 C7.93 235 14.86 235 22 235 C22 228.07 22 221.14 22 214 C28.93 214 35.86 214 43 214 C43 207.07 43 200.14 43 193 C36.07 193 29.14 193 22 193 C22 186.07 22 179.14 22 172 C28.93 171.67 35.86 171.34 43 171 C43.33 164.07 43.66 157.14 44 150 C50.6 150 57.2 150 64 150 C64 143.07 64 136.14 64 129 C57.07 129 50.14 129 43 129 C43 135.93 43 142.86 43 150 C36.07 150 29.14 150 22 150 C22 143.07 22 136.14 22 129 C14.74 129 7.48 129 0 129 C0 135.93 0 142.86 0 150 C-6.93 150 -13.86 150 -21 150 C-21 143.07 -21 136.14 -21 129 C-27.93 129 -34.86 129 -42 129 C-42 114.81 -42 100.62 -42 86 C-27.81 86 -13.62 86 1 86 C1 92.93 1 99.86 1 107 C7.93 107 14.86 107 22 107 C22 100.07 22 93.14 22 86 C28.93 86 35.86 86 43 86 C43 79.07 43 72.14 43 65 C36.07 65 29.14 65 22 65 C22 58.07 22 51.14 22 44 C7.81 44 -6.38 44 -21 44 C-21 36.41 -21 28.82 -21 21 C-14.07 21 -7.14 21 0 21 C0 14.07 0 7.14 0 0 Z " fill="#F3F3F3" transform="translate(192,0)"/>
  <path d="M0 0 C0 4.62 0 9.24 0 14 C6.93 14 13.86 14 21 14 C21 20.93 21 27.86 21 35 C28.26 35 35.52 35 43 35 C43 41.93 43 48.86 43 56 C49.93 56 56.86 56 64 56 C64 49.07 64 42.14 64 35 C70.93 35 77.86 35 85 35 C85 28.07 85 21.14 85 14 C91.93 14 98.86 14 106 14 C106 20.93 106 27.86 106 35 C99.4 35 92.8 35 86 35 C86 42.26 86 49.52 86 57 C78.74 57 71.48 57 64 57 C64 63.93 64 70.86 64 78 C57.07 78 50.14 78 43 78 C43 91.86 43 105.72 43 120 C49.6 120 56.2 120 63 120 C64 121 64 121 64.11352539 122.94946289 C64.10828857 123.7821167 64.10305176 124.61477051 64.09765625 125.47265625 C64.09515869 126.28226807 64.09266113 127.09187988 64.09008789 127.92602539 C64.08098389 128.96106201 64.07187988 129.99609863 64.0625 131.0625 C64.041875 134.341875 64.02125 137.62125 64 141 C57.07 141 50.14 141 43 141 C43 147.93 43 154.86 43 162 C49.5370285 161.96041741 49.5370285 161.96041741 56.07397461 161.90991211 C57.28839233 161.90616577 57.28839233 161.90616577 58.52734375 161.90234375 C59.35999756 161.89710693 60.19265137 161.89187012 61.05053711 161.88647461 C63 162 63 162 64 163 C64.09880797 164.47652664 64.13079245 165.95767236 64.1328125 167.4375 C64.13410156 168.33210937 64.13539063 169.22671875 64.13671875 170.1484375 C64.13285156 171.08945312 64.12898437 172.03046875 64.125 173 C64.12886719 173.94101562 64.13273438 174.88203125 64.13671875 175.8515625 C64.13478516 177.19347656 64.13478516 177.19347656 64.1328125 178.5625 C64.13168457 179.38878906 64.13055664 180.21507812 64.12939453 181.06640625 C64 183 64 183 63 184 C61.5112814 184.08669432 60.018555 184.10703494 58.52734375 184.09765625 C57.71773193 184.09515869 56.90812012 184.09266113 56.07397461 184.09008789 C55.03893799 184.08098389 54.00390137 184.07187988 52.9375 184.0625 C49.658125 184.041875 46.37875 184.02125 43 184 C43 190.93 43 197.86 43 205 C49.93 205 56.86 205 64 205 C64 211.93 64 218.86 64 226 C70.93 226 77.86 226 85 226 C85 233.26 85 240.52 85 248 C91.93 248 98.86 248 106 248 C106 254.93 106 261.86 106 269 C99.07 269 92.14 269 85 269 C85 275.93 85 282.86 85 290 C78.07 290 71.14 290 64 290 C64 283.07 64 276.14 64 269 C57.07 269 50.14 269 43 269 C43 275.93 43 282.86 43 290 C35.74 290 28.48 290 21 290 C21 283.07 21 276.14 21 269 C14.07 269 7.14 269 0 269 C0 262.07 0 255.14 0 248 C6.93 248 13.86 248 21 248 C21 240.74 21 233.48 21 226 C14.07 226 7.14 226 0 226 C0 219.07 0 212.14 0 205 C-7.26 205 -14.52 205 -22 205 C-22 198.07 -22 191.14 -22 184 C-15.07 184 -8.14 184 -1 184 C-1 176.74 -1 169.48 -1 162 C-7.6 162 -14.2 162 -21 162 C-21 155.07 -21 148.14 -21 141 C-14.07 141 -7.14 141 0 141 C0 147.93 0 154.86 0 162 C6.93 162 13.86 162 21 162 C21 155.07 21 148.14 21 141 C27.93 141 34.86 141 42 141 C42 134.07 42 127.14 42 120 C35.07 120 28.14 120 21 120 C20.97709361 114.17923189 20.95716574 108.358619 20.94506836 102.5378418 C20.94002733 100.55606559 20.93319462 98.57429311 20.92456055 96.5925293 C20.91248485 93.75047891 20.90676955 90.90847753 20.90234375 88.06640625 C20.89718246 87.17474258 20.89202118 86.28307892 20.88670349 85.36439514 C20.88650823 83.24259399 20.9378997 81.1208922 21 79 C22 78 22 78 23.94946289 77.88647461 C24.7821167 77.89171143 25.61477051 77.89694824 26.47265625 77.90234375 C27.28226807 77.90484131 28.09187988 77.90733887 28.92602539 77.90991211 C29.96106201 77.91901611 30.99609863 77.92812012 32.0625 77.9375 C35.341875 77.958125 38.62125 77.97875 42 78 C42 71.07 42 64.14 42 57 C34.74 57 27.48 57 20 57 C20 63.93 20 70.86 20 78 C13.4 78 6.8 78 0 78 C-0.33 71.4 -0.66 64.8 -1 58 C-7.6 57.67 -14.2 57.34 -21 57 C-20.979375 59.866875 -20.95875 62.73375 -20.9375 65.6875 C-20.90035163 76.48680354 -21.41713381 87.21697544 -22 98 C-28.93 98 -35.86 98 -43 98 C-43 91.4 -43 84.8 -43 78 C-50.26 78 -57.52 78 -65 78 C-65 71.07 -65 64.14 -65 57 C-50.81 56.67 -36.62 56.34 -22 56 C-22 49.07 -22 42.14 -22 35 C-28.93 35 -35.86 35 -43 35 C-43 28.07 -43 21.14 -43 14 C-35.25477326 10.81892473 -27.42377718 8.01459705 -19.5 5.3125 C-17.17666698 4.5181438 -14.85372873 3.72263171 -12.53125 2.92578125 C-11.51611328 2.57942627 -10.50097656 2.23307129 -9.45507812 1.8762207 C-4.19810532 0 -4.19810532 0 0 0 Z " fill="#F0F0EF" transform="translate(321,627)"/>
  <path d="M0 0 C3.70755595 2.67430265 6.50643246 5.70036491 8.5625 9.8125 C9.34524975 25.01590865 7.77538637 39.78723699 5.5625 54.8125 C6.738125 54.750625 6.738125 54.750625 7.9375 54.6875 C10.5625 54.8125 10.5625 54.8125 12.5625 56.8125 C12.88863281 56.25820313 13.21476563 55.70390625 13.55078125 55.1328125 C13.98777344 54.40835938 14.42476562 53.68390625 14.875 52.9375 C15.51888672 51.85855469 15.51888672 51.85855469 16.17578125 50.7578125 C18.19869469 47.92003534 20.06115668 46.92148768 23.4375 46.1875 C26.5625 46.8125 26.5625 46.8125 27.88671875 48.390625 C29.16562303 50.50464974 30.37154427 52.64783129 31.5625 54.8125 C33.09154105 57.39512057 34.26138424 58.72057659 36.5625 60.8125 C39.62879953 61.2985576 42.48756319 61.17425727 45.5625 60.8125 C46.5218157 58.61735127 46.5218157 58.61735127 46.5625 55.8125 C43.45806314 51.05236348 39.40593838 48.0679509 34.91015625 44.66796875 C28.32884403 39.46643247 22.30252809 34.12836846 21.09375 25.4453125 C21.01390116 16.48228045 22.05889617 11.58938076 28.171875 5.10546875 C34.82414869 -1.16536723 42.1181044 -2.73635777 51 -2.625 C52.25514404 -2.61472778 52.25514404 -2.61472778 53.53564453 -2.60424805 C61.39121455 -2.39938018 66.27871326 -0.53306196 72.625 4 C75.35362845 7.96091226 75.32859465 11.14179393 74.5625 15.8125 C73.19678552 19.32433723 71.763111 22.67875933 68.5625 24.8125 C65.625 25.25 65.625 25.25 62.5625 24.8125 C58.95111747 22.12975869 57.50599623 18.78783319 55.5625 14.8125 C52.85370665 13.45810332 50.55316732 13.74748549 47.5625 13.8125 C47.0675 16.2875 47.0675 16.2875 46.5625 18.8125 C50.82603148 22.62347786 55.14491512 26.27423429 59.6875 29.75 C65.58084155 34.41933985 71.92730159 40.7087546 72.8984375 48.51171875 C73.00898188 56.96836363 71.67755475 62.89643118 66.375 69.5625 C56.7451233 77.26640136 47.70513115 78.55508446 35.5625 77.8125 C26.6970443 76.54753776 19.47832525 73.81655003 13.84765625 66.62109375 C13.21150391 65.72583984 13.21150391 65.72583984 12.5625 64.8125 C12.02882813 65.34359375 11.49515625 65.8746875 10.9453125 66.421875 C2.9839244 73.97004226 -3.96842884 77.26216337 -14.9921875 77.24609375 C-17.9101606 76.72868957 -19.30291417 75.84657842 -21.4375 73.8125 C-24.09998914 65.82503259 -21.96746172 57.16976273 -20.4375 49.125 C-18.79776384 39.97621807 -17.5630587 31.11598198 -18.4375 21.8125 C-19.5849283 20.43394491 -19.5849283 20.43394491 -22.6875 20.75 C-26.73147233 21.86248777 -26.73147233 21.86248777 -29.1875 24.8125 C-33.64171227 33.05133708 -34.0448003 43.47691298 -35.14453125 52.6328125 C-35.32798096 54.10886963 -35.32798096 54.10886963 -35.51513672 55.61474609 C-35.75083275 57.54540677 -35.970529 59.47810387 -36.17236328 61.41259766 C-36.79774294 66.62220832 -37.39644669 70.1088123 -41.4375 73.8125 C-47.60507625 77.45584645 -55.48932488 77.64714818 -62.4375 76.8125 C-64.4375 74.8125 -64.4375 74.8125 -64.71875 71.59375 C-64.57126253 65.7469254 -63.35356045 60.03599843 -62.29824829 54.29879761 C-58.55970813 37.5674364 -58.55970813 37.5674364 -59.4375 20.8125 C-61.2935332 18.9166277 -63.32364827 17.43558719 -65.4375 15.8125 C-66.3125 12.375 -66.3125 12.375 -65.4375 8.8125 C-59.9032049 2.56410231 -50.78310147 -1.21856492 -42.5625 -1.8125 C-40.3515625 -1.71484375 -40.3515625 -1.71484375 -38.4375 -1.1875 C-35.81821404 1.75919671 -34.67527263 4.0991821 -33.4375 7.8125 C-32.8084375 7.34199219 -32.179375 6.87148438 -31.53125 6.38671875 C-22.29055825 -0.33504949 -11.18629461 -6.60345511 0 0 Z " fill="#1F2E23" transform="translate(660.4375,465.1875)"/>
  <path d="M0 0 C0.89460938 0.33773438 1.78921875 0.67546875 2.7109375 1.0234375 C2.7109375 2.3434375 2.7109375 3.6634375 2.7109375 5.0234375 C1.3125 6.38867188 1.3125 6.38867188 -0.6640625 7.6171875 C-1.75871826 8.31702759 -1.75871826 8.31702759 -2.87548828 9.03100586 C-4.07020752 9.76975952 -4.07020752 9.76975952 -5.2890625 10.5234375 C-6.95550081 11.59396695 -8.61951951 12.66827108 -10.28125 13.74609375 C-11.12397461 14.29152832 -11.96669922 14.83696289 -12.83496094 15.39892578 C-16.45645282 17.79620065 -19.94677857 20.3471054 -23.4140625 22.9609375 C-24.05851318 23.44401367 -24.70296387 23.92708984 -25.36694336 24.42480469 C-28.86332523 27.07816471 -32.25819384 29.81940506 -35.59765625 32.66796875 C-36.30970215 33.26939697 -37.02174805 33.8708252 -37.75537109 34.49047852 C-39.11682391 35.64849038 -40.46573041 36.82147728 -41.79931641 38.01147461 C-42.41597168 38.53620361 -43.03262695 39.06093262 -43.66796875 39.6015625 C-44.46569702 40.30394043 -44.46569702 40.30394043 -45.27954102 41.02050781 C-50.18471823 43.46862687 -55.98464615 41.84192591 -61.09765625 40.7109375 C-62.33837891 40.44023437 -63.57910156 40.16953125 -64.85742188 39.890625 C-66.77264648 39.46136719 -66.77264648 39.46136719 -68.7265625 39.0234375 C-70.0434731 38.73370745 -71.36052943 38.44463892 -72.67773438 38.15625 C-75.88300165 37.45179565 -79.08663463 36.74066943 -82.2890625 36.0234375 C-81.70015543 31.46597503 -81.70015543 31.46597503 -79.90063477 29.52880859 C-79.01202759 28.91900146 -79.01202759 28.91900146 -78.10546875 28.296875 C-77.43483398 27.82830078 -76.76419922 27.35972656 -76.07324219 26.87695312 C-75.34008789 26.38904297 -74.60693359 25.90113281 -73.8515625 25.3984375 C-73.08875977 24.87701172 -72.32595703 24.35558594 -71.54003906 23.81835938 C-23.51095181 -8.67248329 -23.51095181 -8.67248329 0 0 Z " fill="#206C44" transform="translate(200.2890625,366.9765625)"/>
  <path d="M0 0 C2.97421987 0.73839139 5.95753486 1.01455487 9 1.37109375 C13.09608519 1.98693873 14.96389034 2.35259479 18.375 4.80859375 C23.4 12.17859375 23.4 12.17859375 22.9375 16.43359375 C22.710625 17.13484375 22.48375 17.83609375 22.25 18.55859375 C19.55569934 17.21144342 19.33067406 15.80568883 18.1875 13.05859375 C17.07211143 10.07838143 17.07211143 10.07838143 15.25 7.55859375 C12.98797261 7.02015515 10.7149198 6.52768125 8.4375 6.05859375 C1.3952571 4.59906154 1.3952571 4.59906154 -0.66040039 4.02636719 C-4.82541144 3.09399645 -9.12496498 3.3311703 -13.375 3.30859375 C-14.32246094 3.28796875 -15.26992187 3.26734375 -16.24609375 3.24609375 C-30.05263008 3.17054499 -41.54765702 8.4456535 -51.75 17.55859375 C-65.79426057 31.8060671 -72.10204483 47.3835098 -72.125 67.30859375 C-72.14949219 68.41203125 -72.17398438 69.51546875 -72.19921875 70.65234375 C-72.24015159 82.27727088 -68.99425325 93.31095188 -61.75 102.55859375 C-58.94363238 105.22669143 -55.97759164 107.42770138 -52.75 109.55859375 C-52.1621875 109.96980469 -51.574375 110.38101563 -50.96875 110.8046875 C-41.13761966 117.13463699 -28.55477707 116.45543121 -17.5625 114.30859375 C-7.83370962 112.09077066 -7.83370962 112.09077066 -0.75 105.55859375 C1.4921875 105.109375 1.4921875 105.109375 4.125 104.87109375 C7.86834808 104.24355969 7.86834808 104.24355969 10.76171875 101.97265625 C13.29046588 97.21597949 14.30574522 91.93243335 14.25 86.55859375 C13.92 85.89859375 13.59 85.23859375 13.25 84.55859375 C8.0933484 84.88854403 5.72656014 87.76008716 2.4375 91.37109375 C-3.27153846 97.37407685 -8.94637776 102.07429696 -17.60546875 102.796875 C-25.92968514 102.98229131 -31.27749987 102.38690662 -37.6484375 96.93359375 C-47.05154333 87.41146126 -48.02706389 73.80110004 -48.07128906 61.09619141 C-47.9584004 53.10702993 -46.39108877 46.12545016 -43.75 38.55859375 C-43.44964844 37.6975 -43.14929688 36.83640625 -42.83984375 35.94921875 C-38.87546034 25.99535565 -32.45101237 19.1084823 -22.75 14.55859375 C-16.22159143 12.47259338 -9.01269462 12.6180903 -2.6875 15.24609375 C2.47571378 18.04898123 5.49966077 22.31076331 8.58813477 27.18823242 C9.83665146 29.15006446 9.83665146 29.15006446 12.25 31.55859375 C15.87027385 32.32513647 15.87027385 32.32513647 19.25 31.55859375 C21.54633824 28.11408638 21.79016485 25.62047092 22.25 21.55859375 C24.25 23.55859375 24.25 23.55859375 24.625 27.43359375 C24.52521718 30.32204368 24.29033165 31.48845174 22.8125 34.05859375 C19.58958478 35.94517827 17.26535166 36.36944456 13.55078125 36.19921875 C9.05922317 34.94859816 6.89681239 31.17345327 4.25 27.55859375 C3.05940375 26.08574408 1.85141906 24.62675066 0.625 23.18359375 C-0.16777344 22.21292969 -0.16777344 22.21292969 -0.9765625 21.22265625 C-5.24856343 17.21412674 -10.250339 17.05961093 -15.83984375 17.1875 C-23.39021316 18.15029878 -29.44692638 22.18516498 -34.15234375 28.05859375 C-43.3222764 42.40763261 -46.33695208 60.16754216 -43.33105469 76.88916016 C-41.30413191 85.19803933 -38.26212676 92.33564606 -31.125 97.43359375 C-23.79964314 99.87537937 -16.41335987 99.28108946 -9.375 96.16796875 C-3.24945196 92.41242442 2.09331066 87.07107301 6.87890625 81.74609375 C8.25 80.55859375 8.25 80.55859375 11.75 80.12109375 C15.25 80.55859375 15.25 80.55859375 17.1875 82.12109375 C20.01567462 88.60925906 17.58623263 95.26463371 15.25 101.55859375 C13.28965052 105.47929272 11.65001376 107.69358879 7.375 109.234375 C6.67375 109.44449219 5.9725 109.65460938 5.25 109.87109375 C1.66661546 111.00968529 -1.62049647 112.41330914 -5 114.05859375 C-17.34303213 119.72508978 -32.51552751 122.33653281 -45.6875 117.93359375 C-58.87900114 112.25474124 -68.01772147 103.04308755 -73.59765625 89.765625 C-80.07562841 71.73709908 -77.58294647 51.28766214 -69.5625 34.18359375 C-61.41295257 19.07838163 -49.54392569 8.23570054 -33.75 1.55859375 C-32.96367187 1.21828125 -32.17734375 0.87796875 -31.3671875 0.52734375 C-21.88610374 -2.94369708 -9.63174478 -2.72774022 0 0 Z " fill="#18291E" transform="translate(226.75,423.44140625)"/>
  <path d="M0 0 C1.16360046 0.01332367 2.32720093 0.02664734 3.52606201 0.04037476 C4.17038177 0.0394986 4.81470154 0.03862244 5.47854614 0.03771973 C7.60077706 0.04188846 9.71981587 0.08849193 11.8414917 0.1355896 C13.3154935 0.14678465 14.78951767 0.15532338 16.2635498 0.16131592 C20.1373696 0.18419107 24.00983278 0.24309958 27.88311768 0.30953979 C31.83780565 0.37099271 35.79271356 0.39833714 39.7477417 0.42855835 C47.50356755 0.49284702 55.25827682 0.59520684 63.0133667 0.7215271 C63.84720402 3.48174056 64.12459301 4.41826905 63.0993042 7.2137146 C59.38807794 19.2017764 60.3611249 36.55747187 66.0133667 47.7215271 C66.66692139 49.10598022 66.66692139 49.10598022 67.3336792 50.5184021 C70.37078598 56.52623082 74.10759412 61.61458354 78.4743042 66.72543335 C80.0133667 68.7215271 80.0133667 68.7215271 80.0133667 70.7215271 C71.54403384 73.2291761 63.01742804 74.93984205 54.3258667 76.4715271 C52.90343698 76.72612036 51.48107541 76.98109467 50.05877686 77.23641968 C41.87200948 78.70162466 33.67904043 80.13160632 25.48602295 81.56137085 C24.60289932 81.71556488 23.7197757 81.86975891 22.80989075 82.02862549 C18.50113977 82.78048808 14.19195816 83.52967536 9.8817749 84.27328491 C8.27713699 84.55123402 6.67256203 84.82954681 5.0680542 85.10824585 C4.29827744 85.24183502 3.52850067 85.37542419 2.73539734 85.51306152 C-3.49812411 86.60767227 -9.69159302 87.86002916 -15.88067627 89.18173218 C-18.66663859 89.66591412 -21.16888002 89.83071421 -23.9866333 89.7215271 C-31.3899843 68.49858757 -25.07908232 43.03816614 -15.80303955 23.18881226 C-13.04836082 17.60723867 -10.17715658 12.06794126 -6.9866333 6.7215271 C-6.4346225 5.70144562 -5.88261169 4.68136414 -5.31387329 3.63037109 C-2.9866333 0.7215271 -2.9866333 0.7215271 0 0 Z M0.0133667 5.7215271 C-0.3166333 6.7115271 -0.6466333 7.7015271 -0.9866333 8.7215271 C-1.6466333 8.7215271 -2.3066333 8.7215271 -2.9866333 8.7215271 C-5.98513089 13.94815729 -8.72780462 19.12356037 -10.9866333 24.7215271 C-11.30503174 25.47047241 -11.62343018 26.21941772 -11.95147705 26.99105835 C-14.22152591 32.43060939 -15.93809337 37.85220324 -17.37335205 43.56918335 C-17.9866333 45.7215271 -17.9866333 45.7215271 -18.9866333 46.7215271 C-21.49437996 59.70203958 -23.49036104 71.77024776 -19.9866333 84.7215271 C-18.63173034 84.60477809 -17.27772634 84.47759287 -15.9241333 84.3465271 C-15.17003174 84.27691772 -14.41593018 84.20730835 -13.63897705 84.1355896 C-11.02256485 83.72713644 -8.59821997 83.01385297 -6.06451416 82.26107788 C-1.71008462 81.13038945 2.76070858 80.54435741 7.2008667 79.8465271 C14.79986604 78.6209192 22.35437175 77.2979759 29.8883667 75.7215271 C38.98777655 73.82066151 48.14387543 72.41810573 57.34686279 71.11605835 C58.40083252 70.96265991 59.45480225 70.80926147 60.54071045 70.6512146 C61.47648926 70.51956909 62.41226807 70.38792358 63.37640381 70.25228882 C66.10267553 69.70355123 68.46927537 68.83195863 71.0133667 67.7215271 C70.6833667 66.0715271 70.3533667 64.4215271 70.0133667 62.7215271 C69.3533667 62.7215271 68.6933667 62.7215271 68.0133667 62.7215271 C68.0133667 61.7315271 68.0133667 60.7415271 68.0133667 59.7215271 C67.3533667 59.7215271 66.6933667 59.7215271 66.0133667 59.7215271 C65.7658667 59.0615271 65.5183667 58.4015271 65.2633667 57.7215271 C64.02638829 54.58633605 64.02638829 54.58633605 62.0758667 51.2840271 C55.47973898 37.91883947 55.13063902 20.13516547 58.0133667 5.7215271 C38.8733667 5.7215271 19.7333667 5.7215271 0.0133667 5.7215271 Z " fill="#2A6144" transform="translate(26.98663330078125,492.2784729003906)"/>
  <path d="M0 0 C0 1.32 0 2.64 0 4 C0.70125 3.34 1.4025 2.68 2.125 2 C5.43460229 -0.30233203 7.06225823 -0.36630156 11 0 C11.66 1.32 12.32 2.64 13 4 C13.50789062 3.71125 14.01578125 3.4225 14.5390625 3.125 C18.84527328 0.80254924 21.97417876 -0.61290503 27 0 C28 1 28 1 28.1328125 3.51953125 C28.11491551 11.06311298 27.75733266 18.49429243 27 26 C30.20379402 24.64728697 32.55726392 23.50176755 34.875 20.875 C36.92348308 15.63998769 36.24240415 10.52714613 35.375 5.0625 C35.25125 4.051875 35.1275 3.04125 35 2 C37 0 37 0 39.375 -0.375 C42.75163282 0.10737612 43.84386856 1.44458496 46 4 C46.825 3.505 47.65 3.01 48.5 2.5 C52.75488188 0.67647919 55.42308671 0.76326311 60 1 C60.13292199 8.70947565 59.61205763 16.3164908 59 24 C59.99 24.66 60.98 25.32 62 26 C61.10768411 29.0825458 60.61713933 30.6297164 57.8125 32.3125 C54.44425862 33.13584789 51.45483383 33.19931734 48 33 C47 32 47 32 46.8671875 29.91796875 C46.88726368 22.9013422 47.31758064 15.98261238 48 9 C47.01 9.33 46.02 9.66 45 10 C44.49785061 11.9081677 44.0054281 13.81978379 43.578125 15.74609375 C41.7466822 22.88624576 38.12254336 27.8946287 32 32 C29.28107436 32.90630855 27.38656013 33.22201578 24.5625 33.3125 C23.80066406 33.34988281 23.03882813 33.38726563 22.25390625 33.42578125 C20 33 20 33 17.73046875 31.62109375 C15.02665709 27.52570408 15.57570407 23.53643451 15.75 18.75 C15.76804687 17.81414063 15.78609375 16.87828125 15.8046875 15.9140625 C15.85174327 13.60832985 15.91746287 11.30469055 16 9 C15.01 9 14.02 9 13 9 C12.34 10.32 11.68 11.64 11 13 C5.25 12.125 5.25 12.125 3 11 C0.92760297 16.60665089 0.30266447 22.03955417 -0.33984375 27.953125 C-1 31 -1 31 -4 33 C-6.33199388 33.07905064 -8.66832622 33.08798769 -11 33 C-11.12867289 24.93649887 -10.79681084 17.02502344 -10 9 C-10.99 8.34 -11.98 7.68 -13 7 C-12.9375 5.1875 -12.9375 5.1875 -12 3 C-7.92723652 0.80697351 -4.63975825 -0.4217962 0 0 Z " fill="#296A47" transform="translate(535,574)"/>
  <path d="M0 0 C1.29749772 2.59499544 0.94158888 4.12726675 0.66015625 7.0078125 C0.5199707 8.48701172 0.5199707 8.48701172 0.37695312 9.99609375 C0.27318359 11.02863281 0.16941406 12.06117188 0.0625 13.125 C-0.03740234 14.16527344 -0.13730469 15.20554687 -0.24023438 16.27734375 C-0.48826296 18.85211663 -0.74173856 21.42623668 -1 24 C-1.66 24 -2.32 24 -3 24 C-2.95875 25.258125 -2.9175 26.51625 -2.875 27.8125 C-2.85171987 31.52568046 -3.32039619 34.81678287 -4.125 38.4375 C-5.22209587 43.92297935 -4.86351124 48.70969865 -3 54 C-1.06110754 56.35639408 -1.06110754 56.35639408 2.4375 56.375 C6 57 6 57 8 58.875 C9 61 9 61 8 64 C2.35365551 68.17338506 -3.02331614 69.13279193 -10 69 C-12.52042331 68.56034067 -14.59437269 67.90879254 -17 67 C-17 66.34 -17 65.68 -17 65 C-17.66 65 -18.32 65 -19 65 C-19 63.68 -19 62.36 -19 61 C-19.66 61 -20.32 61 -21 61 C-24.31662968 54.36674065 -21.92005868 44.89272233 -20.5 37.875 C-18.62580285 28.56953059 -18.71975969 19.45551554 -19 10 C-21.475 9.01 -21.475 9.01 -24 8 C-21.82615436 5.82615436 -19.68729526 4.47801239 -17 3 C-16.34 3 -15.68 3 -15 3 C-15 2.34 -15 1.68 -15 1 C-9.91913204 0.15318867 -5.15171623 -0.09038099 0 0 Z " fill="#1D6F44" transform="translate(769,469)"/>
  <path d="M0 0 C0 1.32 0 2.64 0 4 C1.5159375 3.01 1.5159375 3.01 3.0625 2 C6.87465285 -0.14433598 9.58803743 -0.72195751 14 0 C16.96476307 1.8055074 19.42247762 3.84495524 21 7 C21.85220668 14.26471268 20.7507412 20.68353438 17 27 C14.34426926 29.91598052 11.53011909 32.23494046 8 34 C6.29297265 34.06996014 4.58331997 34.08440154 2.875 34.0625 C1.96492187 34.05347656 1.05484375 34.04445313 0.1171875 34.03515625 C-0.58148437 34.02355469 -1.28015625 34.01195312 -2 34 C-1.67 35.0725 -1.34 36.145 -1 37.25 C0 41 0 41 0 45 C-1.7462388 46.7462388 -3.99878324 46.13221151 -6.32226562 46.13671875 C-7.02029297 46.13285156 -7.71832031 46.12898437 -8.4375 46.125 C-9.47874023 46.13080078 -9.47874023 46.13080078 -10.54101562 46.13671875 C-15.74672012 46.12663994 -15.74672012 46.12663994 -18 45 C-17.71125 44.443125 -17.4225 43.88625 -17.125 43.3125 C-14.35104543 37.61048227 -13.26632287 32.30630768 -12.375 26.0625 C-12.2409375 25.18142578 -12.106875 24.30035156 -11.96875 23.39257812 C-10.91245065 16.71768924 -10.91245065 16.71768924 -11 10 C-11.99 9.34 -12.98 8.68 -14 8 C-13.76953125 6.140625 -13.76953125 6.140625 -13 4 C-11.07421875 2.734375 -11.07421875 2.734375 -8.6875 1.75 C-7.51767578 1.24726562 -7.51767578 1.24726562 -6.32421875 0.734375 C-4 0 -4 0 0 0 Z " fill="#286C47" transform="translate(873,639)"/>
  <path d="M0 0 C0.66 1.32 1.32 2.64 2 4 C2.845625 3.34 3.69125 2.68 4.5625 2 C8.56922989 -0.3311883 10.44297877 -0.73237841 15 0 C17.98989593 1.69606204 20.39062362 3.69419347 21.875 6.875 C21.91625 7.57625 21.9575 8.2775 22 9 C22.1546875 10.546875 22.1546875 10.546875 22.3125 12.125 C21.74366019 19.17861367 19.45124797 25.03918584 14.4375 30.125 C10.17557182 33.56515753 6.45027877 33.60062997 1.125 33.24609375 C0.42375 33.16488281 -0.2775 33.08367188 -1 33 C-0.690625 33.886875 -0.38125 34.77375 -0.0625 35.6875 C0.8290671 38.46709155 1.49377007 41.13136375 2 44 C-0.97239791 45.48619895 -3.69619578 45.13177009 -7 45.125 C-8.8871875 45.12886719 -8.8871875 45.12886719 -10.8125 45.1328125 C-14 45 -14 45 -16 44 C-15.38309604 41.31287684 -14.61682405 39.07955589 -13.54296875 36.5 C-11.50196633 31.14996812 -10.96050815 25.65856298 -10.3125 20 C-10.18294922 18.93910156 -10.05339844 17.87820313 -9.91992188 16.78515625 C-9.60442035 14.19103263 -9.29801141 11.59618089 -9 9 C-10.32 8.34 -11.64 7.68 -13 7 C-11.93262982 3.90462649 -11.02481433 3.01544003 -8.1875 1.25 C-5.13441107 0.05271022 -3.22691821 -0.28472808 0 0 Z " fill="#226843" transform="translate(799,574)"/>
  <path d="M0 0 C-0.73375151 12.72679341 -2.42887966 25.35565898 -4 38 C-2.515 38.495 -2.515 38.495 -1 39 C-1.37670083 41.18486483 -1.87716109 42.80490291 -3.0625 44.6875 C-6.16058518 46.78620286 -9.3027586 46.69694743 -13 47 C-13.99 45.68 -14.98 44.36 -16 43 C-16.845625 43.66 -17.69125 44.32 -18.5625 45 C-22.5069638 47.29496075 -24.51296184 47.58165309 -29 47 C-32.1850357 45.23984869 -32.83296972 44.50109084 -34 41 C-34.7764844 33.34971931 -33.93740297 26.69116946 -30 20 C-28.1100226 17.847245 -26.42883707 16.61922471 -24 15 C-23.38125 14.566875 -22.7625 14.13375 -22.125 13.6875 C-18.74767137 12.59483486 -15.53551747 12.88214942 -12 13 C-12 11.68 -12 10.36 -12 9 C-13.32 8.34 -14.64 7.68 -16 7 C-14.96134782 3.65323186 -13.95387047 2.97467398 -10.8125 1.25 C-7.17577276 -0.16343391 -3.89679063 -0.23857902 0 0 Z " fill="#256844" transform="translate(648,626)"/>
  <path d="M0 0 C11.22 0 22.44 0 34 0 C34 3.63 34 7.26 34 11 C32.68 11.33 31.36 11.66 30 12 C29.63261719 11.18144531 29.26523437 10.36289062 28.88671875 9.51953125 C27.22185516 6.69189001 27.22185516 6.69189001 24.08203125 6.51171875 C22.46361328 6.59873047 22.46361328 6.59873047 20.8125 6.6875 C19.72582031 6.73261719 18.63914062 6.77773438 17.51953125 6.82421875 C16.68808594 6.88222656 15.85664062 6.94023438 15 7 C13.72746564 10.64793184 12.67170806 14.1936543 12 18 C16.94749022 16.87981354 19.11550624 16.12070537 22 12 C23.32 12 24.64 12 26 12 C26.054348 14.0622048 26.09294961 16.12482816 26.125 18.1875 C26.14820313 19.33605469 26.17140625 20.48460937 26.1953125 21.66796875 C26.00484152 24.91740372 25.39360127 27.08660521 24 30 C22.35 29.67 20.7 29.34 19 29 C18.67 28.01 18.34 27.02 18 26 C15.69 25.67 13.38 25.34 11 25 C11 28.96 11 32.92 11 37 C18.38265517 37.61033916 18.38265517 37.61033916 25.0625 35.1875 C27.12828012 32.9553862 27.12828012 32.9553862 29 30 C29.99 30.33 30.98 30.66 32 31 C32.31549088 36.2581813 31.70016294 39.46372627 29 44 C28 45 28 45 24.85717773 45.11352539 C23.46597303 45.11336633 22.07476239 45.10767506 20.68359375 45.09765625 C19.95253922 45.0962413 19.22148468 45.09482635 18.46827698 45.09336853 C16.12464368 45.08775408 13.78110461 45.07519922 11.4375 45.0625 C9.85221492 45.05748686 8.26692834 45.05292363 6.68164062 45.04882812 C2.7877239 45.03777997 -1.10612205 45.02050572 -5 45 C-5.66 43.68 -6.32 42.36 -7 41 C-6.37480469 40.50371094 -5.74960937 40.00742187 -5.10546875 39.49609375 C-2.36921127 36.25218183 -1.90379079 33.13819914 -1.3125 29.0625 C-1.19366455 28.31411865 -1.0748291 27.5657373 -0.95239258 26.79467773 C0.63178117 16.93824585 0.63178117 16.93824585 1 7 C0.34 6.34 -0.32 5.68 -1 5 C-0.67 3.35 -0.34 1.7 0 0 Z " fill="#216540" transform="translate(726,562)"/>
  <path d="M0 0 C2.20914 3.31371 2.22481553 4.3446021 2.125 8.1875 C2.10695313 9.08855469 2.08890625 9.98960937 2.0703125 10.91796875 C2.04710937 11.60503906 2.02390625 12.29210937 2 13 C0.68 13.33 -0.64 13.66 -2 14 C-2.35191406 13.4946875 -2.70382812 12.989375 -3.06640625 12.46875 C-4.6106126 10.43668734 -6.06782994 8.67231205 -8 7 C-11.75393319 6.41338532 -11.75393319 6.41338532 -15 7 C-15.76956136 9.34533951 -15.76956136 9.34533951 -16 12 C-13.181312 15.50686266 -9.08068702 17.71865016 -5.375 20.18359375 C-2.22319714 22.59410087 -0.26398132 24.40834792 0.3984375 28.40234375 C0.31793522 37.11000698 0.31793522 37.11000698 -3 41 C-8.24699428 45.84337934 -12.52944283 46.30053755 -19.4609375 46.21875 C-24.03862247 45.82436483 -27.38079717 44.35804109 -30.9375 41.375 C-32.57925654 37.70519126 -32.41798725 33.96284064 -32 30 C-31 29 -31 29 -28.75 28.4375 C-27.8425 28.623125 -26.935 28.80875 -26 29 C-24.83984375 30.78515625 -24.83984375 30.78515625 -23.6875 33 C-22.55190793 35.23048499 -22.55190793 35.23048499 -21 37 C-18.05472492 37.7473086 -16.07141549 37.41646312 -13 37 C-12.67 35.35 -12.34 33.7 -12 32 C-12.59167969 31.55269531 -13.18335938 31.10539063 -13.79296875 30.64453125 C-24.22419534 22.66370699 -24.22419534 22.66370699 -28 17 C-28.43115734 11.65364903 -28.48027771 8.32034474 -25 4 C-17.96279997 -2.17900491 -9.01738136 -2.61029461 0 0 Z " fill="#296A48" transform="translate(488,562)"/>
  <path d="M0 0 C0.64324219 0.52980469 1.28648437 1.05960937 1.94921875 1.60546875 C2.60535156 2.12753906 3.26148438 2.64960938 3.9375 3.1875 C5.63671875 4.79296875 5.63671875 4.79296875 7.63671875 7.79296875 C-1.12663964 12.30522779 -9.99448052 16.46176536 -19.01513672 20.43286133 C-25.1372794 23.15713855 -30.90249641 26.19815314 -36.63671875 29.67578125 C-42.37316654 32.02624553 -47.85698286 28.97789085 -53.23828125 26.73046875 C-53.92664063 26.44880859 -54.615 26.16714844 -55.32421875 25.87695312 C-57.00618034 25.18781609 -58.68505822 24.49116077 -60.36328125 23.79296875 C-60.18798828 21.96166992 -60.18798828 21.96166992 -59.36328125 19.79296875 C-57.13623047 18.38012695 -57.13623047 18.38012695 -54.16796875 17.09375 C-53.07000977 16.61067383 -51.97205078 16.12759766 -50.84082031 15.62988281 C-49.65198242 15.12682617 -48.46314453 14.62376953 -47.23828125 14.10546875 C-46.02881836 13.58307617 -44.81935547 13.06068359 -43.57324219 12.52246094 C-39.84750336 10.91955665 -36.10691923 9.35350714 -32.36328125 7.79296875 C-31.2350293 7.31972168 -30.10677734 6.84647461 -28.94433594 6.35888672 C-25.84160779 5.06709485 -22.73074857 3.79872211 -19.61328125 2.54296875 C-18.21505127 1.96929565 -18.21505127 1.96929565 -16.78857422 1.3840332 C-5.76433559 -2.94409867 -5.76433559 -2.94409867 0 0 Z " fill="#266B47" transform="translate(262.36328125,329.20703125)"/>
  <path d="M0 0 C3.125 1.375 3.125 1.375 5 3 C5 3.66 5 4.32 5 5 C5.7425 4.525625 6.485 4.05125 7.25 3.5625 C11.94730629 0.89357597 15.60403675 0.89623148 21 1 C21.12288711 7.93629454 20.83023376 14.67278047 20.0234375 21.56640625 C20.01570312 22.36949219 20.00796875 23.17257812 20 24 C20.66 24.66 21.32 25.32 22 26 C21.9375 27.9375 21.9375 27.9375 21 30 C17.11336136 33.20076124 13.93053201 33.37927169 9 33 C8 32 8 32 7.8671875 29.8828125 C7.88610853 23.20368962 8.28077434 16.63999405 9 10 C8.34 9.67 7.68 9.34 7 9 C5.68 10.65 4.36 12.3 3 14 C0.525 13.505 0.525 13.505 -2 13 C-2.66 10.69 -3.32 8.38 -4 6 C-7.62793998 7.86566488 -7.62793998 7.86566488 -10 11 C-10.09663965 13.18576146 -10.12980327 15.37460848 -10.125 17.5625 C-10.12757813 18.73941406 -10.13015625 19.91632812 -10.1328125 21.12890625 C-10.32783188 23.89672701 -10.32783188 23.89672701 -9 25 C-4.52519101 25.17548271 -0.39166027 24.85690932 4 24 C3.9375 26.25 3.9375 26.25 3 29 C-2.12288368 33.21214881 -6.70887332 33.61956443 -13.25 33.390625 C-16.88068916 32.87490211 -18.65703859 31.81155369 -21 29 C-23.86265069 24.23917591 -23.71079429 19.39455453 -23 14 C-19.2955545 3.92046224 -10.60093604 -1.87289265 0 0 Z " fill="#266946" transform="translate(621,574)"/>
  <path d="M0 0 C2.25 0.109375 2.25 0.109375 5 1 C6.60491114 3.10340626 7.78518576 4.93756897 9 7.25 C9.3417627 7.87753174 9.68352539 8.50506348 10.03564453 9.15161133 C17.16843744 22.56725369 20.3976398 35.52644614 20.3125 50.6875 C20.30512817 52.25842407 20.30512817 52.25842407 20.29760742 53.86108398 C19.85142565 83.64543336 5.67126479 114.66708416 -14 137 C-14.66 137 -15.32 137 -16 137 C-16.061875 135.0509375 -16.061875 135.0509375 -16.125 133.0625 C-16.86049494 126.57584321 -20.02160155 121.55546587 -24.953125 117.32421875 C-26.58670724 116.14551612 -28.28792997 115.06148342 -30 114 C-28.61847429 109.9422203 -26.74752195 107.2789096 -23.9375 104.0625 C-14.36038217 92.58528199 -4.75232022 78.25696066 0 64 C1.485 64.495 1.485 64.495 3 65 C2.40504786 70.18756512 -0.02666406 74.39610531 -2.4375 78.9375 C-2.88198486 79.77780762 -3.32646973 80.61811523 -3.78442383 81.48388672 C-7.92429487 89.14297595 -12.70481298 96.10476481 -18 103 C-18.72058594 103.94359375 -19.44117188 104.8871875 -20.18359375 105.859375 C-21.77343085 107.91944561 -23.37576689 109.96701949 -25 112 C-23.9171875 113.051875 -23.9171875 113.051875 -22.8125 114.125 C-18.82514075 118.11235925 -15.36443028 122.47843908 -12 127 C-5.89538928 119.04452326 -0.7281879 110.8272614 4 102 C4.54785156 101.00742187 5.09570312 100.01484375 5.66015625 98.9921875 C18.52369034 73.79150435 18.2729078 44.42511328 10 18 C10.01571045 18.6077124 10.0314209 19.2154248 10.04760742 19.84155273 C10.38706081 35.04820511 10.13181272 49.51936322 5 64 C4.01 63.67 3.02 63.34 2 63 C2.44604342 58.36114839 3.21857925 54.21283117 4.5625 49.75 C8.23742774 35.34137241 6.3030015 20.99260707 2 7 C1.32550724 4.66884837 0.66352859 2.33430553 0 0 Z " fill="#1F2D23" transform="translate(538,345)"/>
  <path d="M0 0 C4.62640648 0.56857518 8.58796469 0.35313531 13.1875 -0.4375 C13.043125 0.70847656 12.89875 1.85445312 12.75 3.03515625 C12.56227964 4.56507715 12.37479203 6.09502661 12.1875 7.625 C12.04441406 8.75325195 12.04441406 8.75325195 11.8984375 9.90429688 C11.34178098 14.49671317 11.08920972 18.9367135 11.1875 23.5625 C11.8475 23.8925 12.5075 24.2225 13.1875 24.5625 C13.0625 26.8125 13.0625 26.8125 12.1875 29.5625 C9.32419351 31.97028045 7.19298728 33.3754326 3.5 34.0625 C1.1875 33.5625 1.1875 33.5625 -0.625 31.5625 C-1.016875 30.9025 -1.40875 30.2425 -1.8125 29.5625 C-2.658125 30.2225 -3.50375 30.8825 -4.375 31.5625 C-8.3275573 33.8621697 -10.31702934 34.22849565 -14.8125 33.5625 C-17.17747439 31.69541495 -18.47280715 30.24188569 -19.8125 27.5625 C-20.54832476 20.07689807 -19.98825615 12.58205609 -15.1953125 6.515625 C-10.33974929 1.47250784 -7.16933343 -0.89271546 0 0 Z " fill="#2A6B49" transform="translate(780.8125,639.4375)"/>
  <path d="M0 0 C0.33 -0.33 0.66 -0.66 1 -1 C2.99958364 -1.04080783 5.00045254 -1.04254356 7 -1 C6.42754306 7.34325541 5.79850617 15.67514847 5 24 C5.66 24 6.32 24 7 24 C7.25 26.3125 7.25 26.3125 7 29 C5.5 30.8125 5.5 30.8125 3 32 C0.27920155 32.23884872 -2.25814068 32.13709297 -5 32 C-5.66 30.68 -6.32 29.36 -7 28 C-7.639375 28.66 -8.27875 29.32 -8.9375 30 C-12.52214366 32.34099178 -14.65182509 32.50620629 -18.81640625 32.62890625 C-22.17918184 31.66037875 -23.2094498 29.94446032 -25 27 C-26.08376516 20.74405905 -26.17160414 14.02785784 -22.875 8.4375 C-16.76303745 0.3230426 -9.96505834 -2.79021633 0 0 Z " fill="#266945" transform="translate(927,575)"/>
  <path d="M0 0 C3.96876308 1.31449478 7.67980515 0.09036661 11.40234375 -1.453125 C14.41736606 -2.61274897 16.63493859 -2.73898426 19.83984375 -2.390625 C21.5078125 -1.2578125 21.5078125 -1.2578125 22.83984375 0.609375 C23.1328125 3.52734375 23.1328125 3.52734375 23.02734375 6.796875 C22.98673828 8.42689453 22.98673828 8.42689453 22.9453125 10.08984375 C22.91050781 10.92128906 22.87570312 11.75273437 22.83984375 12.609375 C22.17984375 12.609375 21.51984375 12.609375 20.83984375 12.609375 C19.55666483 8.75983824 19.77340738 5.66199365 19.83984375 1.609375 C18.21416305 1.91831432 16.58931627 2.2316445 14.96484375 2.546875 C13.60746094 2.80791016 13.60746094 2.80791016 12.22265625 3.07421875 C9.84028058 3.50901201 9.84028058 3.50901201 7.83984375 4.609375 C1.46424375 4.963575 1.46424375 4.963575 -0.90234375 3.62109375 C-6.59540155 1.07005228 -15.72872969 1.76619398 -21.671875 3.2265625 C-23.72863713 4.16941898 -25.36624278 5.23064674 -27.16015625 6.609375 C-27.89492188 7.145625 -28.6296875 7.681875 -29.38671875 8.234375 C-39.20292884 16.11360718 -46.29475566 29.10944768 -48.16015625 41.609375 C-48.37320386 44.73518284 -48.43629034 47.85205838 -48.47265625 50.984375 C-48.50166016 51.809375 -48.53066406 52.634375 -48.56054688 53.484375 C-48.62192 59.43284689 -47.41072166 62.64697336 -44.16015625 67.609375 C-44.16015625 68.269375 -44.16015625 68.929375 -44.16015625 69.609375 C-43.23203125 70.0734375 -43.23203125 70.0734375 -42.28515625 70.546875 C-40.91015625 71.234375 -39.53515625 71.921875 -38.16015625 72.609375 C-29.34816165 73.4598998 -21.25529244 72.61898313 -14.125 67.0078125 C-12.96230764 65.96607964 -11.82605037 64.89334793 -10.73046875 63.78125 C-9.16015625 62.609375 -9.16015625 62.609375 -5.16015625 62.609375 C-4.17015625 65.909375 -3.18015625 69.209375 -2.16015625 72.609375 C6.45060424 72.07120247 13.58229177 69.86692698 19.83984375 63.609375 C20.71927779 60.97476552 20.71927779 60.97476552 20.83984375 58.609375 C19.87046875 58.320625 18.90109375 58.031875 17.90234375 57.734375 C14.83984375 56.609375 14.83984375 56.609375 13.83984375 54.609375 C13.13561952 46.42609764 14.49581552 38.25075037 15.65234375 30.171875 C15.81798828 28.90666016 15.98363281 27.64144531 16.15429688 26.33789062 C16.32509766 25.12939453 16.49589844 23.92089844 16.671875 22.67578125 C16.82374268 21.58209229 16.97561035 20.48840332 17.13208008 19.36157227 C17.8701479 16.49153484 18.54411425 15.41257331 20.83984375 13.609375 C21.3639085 21.89736192 20.21583403 29.83688146 18.90698242 37.99487305 C18.08046159 43.27763275 17.69042616 48.26147037 17.83984375 53.609375 C19.01546875 54.0425 19.01546875 54.0425 20.21484375 54.484375 C22.83984375 55.609375 22.83984375 55.609375 24.83984375 57.609375 C25.40234375 60.296875 25.40234375 60.296875 24.83984375 63.609375 C20.15342931 70.7269669 11.35938616 75.38917942 3.20703125 77.19140625 C0.82964092 77.36009896 -0.89361595 77.3440798 -3.16015625 76.609375 C-5.77944221 73.66267829 -6.92238362 71.3226929 -8.16015625 67.609375 C-8.88460937 68.09148437 -9.6090625 68.57359375 -10.35546875 69.0703125 C-11.32226562 69.70195313 -12.2890625 70.33359375 -13.28515625 70.984375 C-14.23648438 71.61085938 -15.1878125 72.23734375 -16.16796875 72.8828125 C-23.28387631 76.98885838 -30.09282819 77.41510065 -38.16015625 76.609375 C-43.34222537 75.00648543 -47.4893745 71.29547191 -50.16015625 66.609375 C-55.17069659 54.55590648 -54.23462149 42.05194654 -49.63671875 30.08203125 C-44.58005613 18.1895099 -35.96785558 6.15425017 -24.03515625 0.421875 C-23.37257813 0.09832031 -22.71 -0.22523438 -22.02734375 -0.55859375 C-14.68661963 -3.82966956 -7.21179056 -3.12658405 0 0 Z " fill="#1D2D22" transform="translate(567.16015625,465.390625)"/>
  <path d="M0 0 C0.99 0.66 1.98 1.32 3 2 C3.05632424 4.80435411 2.95814702 7.35146678 2.6875 10.125 C2.5956543 11.25615234 2.5956543 11.25615234 2.50195312 12.41015625 C2.3485467 14.27463438 2.17606541 16.13752498 2 18 C3.48113281 17.96519531 3.48113281 17.96519531 4.9921875 17.9296875 C6.27351563 17.91164063 7.55484375 17.89359375 8.875 17.875 C10.15117187 17.85179687 11.42734375 17.82859375 12.7421875 17.8046875 C16 18 16 18 18 20 C18 21.32 18 22.64 18 24 C18.598125 23.67 19.19625 23.34 19.8125 23 C22 22 22 22 25 22 C24.8125 23.8125 24.8125 23.8125 24 26 C22.34051852 27.01187895 20.67419438 28.0126546 19 29 C19 29.99 19 30.98 19 32 C20.134375 32.61875 21.26875 33.2375 22.4375 33.875 C25.875 35.75 25.875 35.75 27 38 C27.38066888 43.828277 26.91319168 49.7016036 26.3125 55.5 C26.2314502 56.28737549 26.15040039 57.07475098 26.06689453 57.88598633 C24.79455027 69.04635505 22.35193416 80.02654721 20 91 C27.86366426 91.14310086 27.86366426 91.14310086 35.625 90 C36.46289062 89.814375 37.30078125 89.62875 38.1640625 89.4375 C39.07285156 89.2209375 39.07285156 89.2209375 40 89 C40.13277344 87.84242188 40.26554687 86.68484375 40.40234375 85.4921875 C40.58065082 83.95311592 40.75904062 82.41405393 40.9375 80.875 C41.02451172 80.11445312 41.11152344 79.35390625 41.20117188 78.5703125 C41.6915487 74.35670423 42.25902978 70.178805 43 66 C45.5086538 70.42236994 45.24670525 74.03505676 45 79 C44.95875 79.89203125 44.9175 80.7840625 44.875 81.703125 C44.39719645 88.51182559 44.39719645 88.51182559 42.6015625 90.71875 C36.31520855 95.74783316 26.66431808 95.73888034 19 95 C17 93 17 93 16.71899414 91.13793945 C16.73123072 83.32855403 18.04507722 75.85541498 19.4375 68.1875 C20.77703696 60.75438313 22.07663515 53.32915876 22.8828125 45.81640625 C22.99383301 44.79619385 23.10485352 43.77598145 23.21923828 42.72485352 C22.94278299 39.2888652 21.89381555 38.1019885 19.4375 35.75 C13.45648696 31.91723057 6.92446098 31.93105089 0 32 C-0.12117188 33.07636719 -0.24234375 34.15273438 -0.3671875 35.26171875 C-0.53590265 36.73704282 -0.70521737 38.2122984 -0.875 39.6875 C-0.96378418 40.4619043 -1.05256836 41.23630859 -1.14404297 42.03417969 C-1.68353169 46.63263368 -2.34092025 51.18553575 -3.125 55.75 C-4.17100936 62.21401095 -4.14374202 68.45973797 -4 75 C0.95 75 5.9 75 11 75 C8 79 8 79 4.96875 79.49609375 C3.8240625 79.47675781 2.679375 79.45742188 1.5 79.4375 C0.3553125 79.43621094 -0.789375 79.43492187 -1.96875 79.43359375 C-5 79 -5 79 -6.67041016 77.86523438 C-11.68510499 70.83029707 -7.34580129 55.46794821 -6.125 47.4375 C-5.86396484 45.59188477 -5.86396484 45.59188477 -5.59765625 43.70898438 C-4.81523606 38.38562922 -4.01553634 34.03884085 -2 29 C2.95 28.67 7.9 28.34 13 28 C13.66 25.69 14.32 23.38 15 21 C9.39 21 3.78 21 -2 21 C-1.125 7.375 -1.125 7.375 0 4 C-7.72143764 3.67805569 -7.72143764 3.67805569 -15 6 C-18.39942301 10.00646283 -19.06674673 14.96043235 -20 20 C-22 18 -22 18 -22.375 14.875 C-21.91956049 10.16879178 -20.75108081 6.84113169 -18 3 C-12.91535713 -1.0677143 -6.23805833 -0.69311759 0 0 Z " fill="#212E24" transform="translate(438,447)"/>
  <path d="M0 0 C0.495 1.98 0.495 1.98 1 4 C-0.28003906 4.23783203 -0.28003906 4.23783203 -1.5859375 4.48046875 C-4.33014851 4.99253287 -7.07347519 5.50852848 -9.81640625 6.02734375 C-13.5086883 6.7245585 -17.20454316 7.39912051 -20.90234375 8.06640625 C-39.61418044 11.48912634 -58.12691739 15.59019323 -76.16015625 21.70703125 C-76.84199982 21.93811081 -77.52384338 22.16919037 -78.22634888 22.40727234 C-81.5535783 23.54136279 -84.87092009 24.69786373 -88.17871094 25.88745117 C-89.37399414 26.30615479 -90.56927734 26.7248584 -91.80078125 27.15625 C-92.85434814 27.53587891 -93.90791504 27.91550781 -94.9934082 28.30664062 C-99.98506416 29.45778175 -103.05360572 28.57835206 -107.375 25.9375 C-108.24125 25.298125 -109.1075 24.65875 -110 24 C-109.859375 22.14453125 -109.859375 22.14453125 -109 20 C-90.78046928 10.43776285 -66.43603364 8.03662168 -46.25 4.6875 C-45.51157867 4.56448517 -44.77315735 4.44147034 -44.01235962 4.31472778 C-35.98328538 2.9892169 -27.94261576 1.81550595 -19.86328125 0.83984375 C-18.83566681 0.71375984 -18.83566681 0.71375984 -17.78729248 0.58512878 C-11.84753853 -0.10271726 -5.97009797 -0.20705542 0 0 Z " fill="#356048" transform="translate(389,300)"/>
  <path d="M0 0 C2.72978708 3.08201767 3.26158944 6.04185333 4 10 C4.53109375 9.51789063 5.0621875 9.03578125 5.609375 8.5390625 C6.31578125 7.90742188 7.0221875 7.27578125 7.75 6.625 C8.44609375 5.99851562 9.1421875 5.37203125 9.859375 4.7265625 C14.59430663 0.90751181 18.31750388 0.56792674 24.3046875 0.6796875 C28.92387812 1.22863479 31.5399582 3.44935894 34.63671875 6.73828125 C36.45780379 9.75950829 36.3651934 11.93136194 36.3125 15.4375 C36.30863281 16.54996094 36.30476562 17.66242188 36.30078125 18.80859375 C35.90968152 22.95831429 34.8027429 25.84405023 32.4375 29.25 C28.83784848 31.8343652 25.3792627 32.18801843 21 32 C17.15441271 30.5788047 16.22429628 29.39445207 14.1875 25.8125 C13.795625 24.884375 13.40375 23.95625 13 23 C12.01 23 11.02 23 10 23 C7.56814905 28.74801133 6.39538507 34.07044503 5.625 40.265625 C4.95322469 43.20464198 3.96849176 44.75335179 2 47 C2.25328669 35.96936446 2.73302559 27.40046161 9 18 C9.66 18 10.32 18 11 18 C11 17.01 11 16.02 11 15 C9.10820797 14.3185177 9.10820797 14.3185177 7 14 C6.34 14.66 5.68 15.32 5 16 C3.68 15.67 2.36 15.34 1 15 C0.01 11.37 -0.98 7.74 -2 4 C-6.86896303 4.59619955 -11.32790951 5.56976822 -16 7 C-15.9375 5.1875 -15.9375 5.1875 -15 3 C-9.91931915 0.0967538 -5.81596545 -0.77546206 0 0 Z " fill="#216F46" transform="translate(480,464)"/>
  <path d="M0 0 C1.45894679 -0.00596331 2.91817729 0.01580133 4.37646484 0.06005859 C5.53183243 0.06711319 5.53183243 0.06711319 6.71054077 0.0743103 C9.17040378 0.09566409 11.62811465 0.15229753 14.08740234 0.20849609 C15.75144464 0.2250006 17.41550981 0.23934935 19.07958984 0.25146484 C31.26686211 0.38795586 31.26686211 0.38795586 32.46240234 1.58349609 C32.5349918 3.76989063 32.54614017 5.95849998 32.52490234 8.14599609 C32.51587891 9.34353516 32.50685547 10.54107422 32.49755859 11.77490234 C32.48595703 12.70173828 32.47435547 13.62857422 32.46240234 14.58349609 C31.14240234 14.91349609 29.82240234 15.24349609 28.46240234 15.58349609 C27.29052734 14.02099609 26.11865234 12.45849609 24.94677734 10.89599609 C23.29320764 9.14189362 23.29320764 9.14189362 19.46240234 9.58349609 C18.78763445 13.45713039 18.12403202 17.33259793 17.46240234 21.20849609 C17.17623047 22.85011719 17.17623047 22.85011719 16.88427734 24.52490234 C16.70380859 25.58837891 16.52333984 26.65185547 16.33740234 27.74755859 C16.16982422 28.72160645 16.00224609 29.6956543 15.82958984 30.69921875 C15.44467245 33.72276532 15.26428512 36.54013566 15.46240234 39.58349609 C16.12240234 40.24349609 16.78240234 40.90349609 17.46240234 41.58349609 C17.21240234 44.14599609 17.21240234 44.14599609 16.46240234 46.58349609 C13.42816254 48.100616 10.2873544 47.76788866 6.96240234 47.77099609 C6.27275391 47.78324219 5.58310547 47.79548828 4.87255859 47.80810547 C3.06762741 47.81338305 1.26322392 47.70534067 -0.53759766 47.58349609 C-1.19759766 46.92349609 -1.85759766 46.26349609 -2.53759766 45.58349609 C-2.35009766 43.58349609 -2.35009766 43.58349609 -1.53759766 41.58349609 C-0.54759766 40.92349609 0.44240234 40.26349609 1.46240234 39.58349609 C2.2289794 37.42800349 2.2289794 37.42800349 2.59521484 34.89208984 C2.76150391 33.9465625 2.92779297 33.00103516 3.09912109 32.02685547 C3.26025391 31.03492188 3.42138672 30.04298828 3.58740234 29.02099609 C3.75626953 28.05613281 3.92513672 27.09126953 4.09912109 26.09716797 C5.09785666 20.27383183 5.86794274 14.46136708 6.46240234 8.58349609 C2.04350621 9.93371436 0.11894891 11.84465278 -2.53759766 15.58349609 C-4.18759766 15.25349609 -5.83759766 14.92349609 -7.53759766 14.58349609 C-7.4493385 13.18656671 -7.34114932 11.79089157 -7.22509766 10.39599609 C-7.16708984 9.61869141 -7.10908203 8.84138672 -7.04931641 8.04052734 C-6.04486712 3.21763728 -5.10100726 0.84136697 0 0 Z " fill="#236643" transform="translate(706.53759765625,625.41650390625)"/>
  <path d="M0 0 C3.97373839 2.06045694 6.66216249 4.19515271 9 8 C10.16295119 15.3339264 9.35747569 21.92764679 5 28 C1.70152668 31.78117674 -0.39672711 33.75070699 -5.48828125 34.23828125 C-11.47453439 34.39559634 -15.43110882 34.33458907 -20 30 C-22.71981948 24.4848105 -22.7429881 19.02211408 -22 13 C-20.03398618 7.4220073 -16.29878754 3.69696665 -11.1796875 0.84765625 C-7.38817881 -0.62681935 -3.97612377 -0.80258795 0 0 Z " fill="#296A47" transform="translate(918,639)"/>
  <path d="M0 0 C3.13729454 2.16622718 4.27904051 3.22327469 5.625 6.8125 C6.56010026 14.06241315 5.90185814 20.73229427 1.625 26.8125 C-2.63069352 31.2773185 -7.01823204 32.15620297 -13.0625 32.375 C-18.21649905 32.38117245 -20.69721804 31.46451816 -24.375 27.8125 C-27.4086942 23.15655845 -26.96737343 17.99137526 -25.98046875 12.6953125 C-24.20720696 6.8149476 -20.33798954 3.26457942 -15.375 -0.1875 C-10.13955736 -1.93264755 -5.19843978 -1.82908066 0 0 Z " fill="#2A6B49" transform="translate(671.375,575.1875)"/>
  <path d="M0 0 C2.03435531 3.72965139 3 5.66905042 3 10 C3.75925781 9.43410156 4.51851562 8.86820312 5.30078125 8.28515625 C6.29464844 7.55167969 7.28851562 6.81820313 8.3125 6.0625 C9.29863281 5.33160156 10.28476562 4.60070312 11.30078125 3.84765625 C16.55178045 0.25326751 21.83925419 0.52052933 28 1 C32.18751277 2.51463228 34.22063182 5.01671795 36.2734375 8.98046875 C38.31541959 14.65630069 37.42368876 20.8003275 35.109375 26.26953125 C32.99925117 29.56102723 30.60731722 30.53261673 27 32 C23.9375 32.5625 23.9375 32.5625 21 32 C17.34601998 29.47032152 14.56812758 27.23394447 13 23 C10.41766221 23.9685842 9.24238537 24.49549103 8.02563477 27.02807617 C5.93064141 35.37720599 4.88302617 43.775499 3.9375 52.3125 C3.69728124 54.45995412 3.45441952 56.60695888 3.20375061 58.7532196 C2.97815513 60.6866955 2.76209302 62.62127686 2.54663086 64.5559082 C1.1941636 73.07723722 1.1941636 73.07723722 -1.890625 75.4609375 C-9.15255878 78.27433569 -16.24895426 78.89595421 -24 78 C-26 76 -26 76 -26.27734375 72.87890625 C-25.96823637 68.55575649 -24.96783203 65.00638145 -23.5625 60.9375 C-21.9942845 56.29435214 -20.66261144 51.88199926 -20 47 C-19.67 47 -19.34 47 -19 47 C-19.51856202 56.102128 -20.46232654 65.01282114 -22 74 C-15.64012196 74.20190089 -10.14778871 73.6277833 -4 72 C-2.45785088 67.0182337 -1.49046435 62.15598928 -0.8515625 56.9765625 C-0.64893009 55.44524724 -0.44578923 53.91399919 -0.2421875 52.3828125 C0.0683574 50.0052337 0.37470815 47.6273367 0.671875 45.24804688 C3.25370261 24.74629739 3.25370261 24.74629739 9 19 C11.875 18.5 11.875 18.5 15 19 C19 23.84210526 19 23.84210526 19 27 C20.6026782 27.10824843 22.20745748 27.18570645 23.8125 27.25 C25.15248047 27.31960938 25.15248047 27.31960938 26.51953125 27.390625 C29.10437304 27.22708802 29.10437304 27.22708802 30.76953125 25.2890625 C32.88009067 21.36275197 33.1252106 17.41019541 33 13 C31.51829549 8.85122738 30.67113187 7.44742125 27 5 C20.27542684 4.4396189 15.15708883 5.36909265 9.890625 9.7578125 C8.50495114 11.00694186 7.13865755 12.27805681 5.796875 13.57421875 C4 15 4 15 1 15 C0.01 11.37 -0.98 7.74 -2 4 C-7.16928371 3.58709255 -10.80154787 4.92574496 -15.3125 7.25 C-15.94478516 7.55035156 -16.57707031 7.85070312 -17.22851562 8.16015625 C-20.84423773 9.93366248 -20.84423773 9.93366248 -22.91796875 13.234375 C-22.94503906 13.81703125 -22.97210937 14.3996875 -23 15 C-22.05125 15.61875 -21.1025 16.2375 -20.125 16.875 C-17 19 -17 19 -15 21 C-14.08247314 28.52911746 -15.09950738 36.69131543 -17 44 C-17.66 44.66 -18.32 45.32 -19 46 C-19.75761679 40.12846989 -19.93688178 34.6070161 -19.625 28.6875 C-19.37665551 24.04878957 -19.37665551 24.04878957 -21.5546875 20.2421875 C-22.81702852 19.47667146 -24.10222874 18.74722278 -25.41015625 18.0625 C-27 17 -27 17 -27.9375 13.5625 C-26.76590758 9.11044882 -25.2392963 7.83696021 -21.48046875 5.35546875 C-14.46213985 1.52025595 -8.00872593 -0.60443215 0 0 Z " fill="#1F2E23" transform="translate(849,464)"/>
  <path d="M0 0 C7.44461899 4.90520085 11.20719473 10.6215842 14 19 C15.5379365 34.58377425 13.51471357 48.15533263 3.8046875 60.88671875 C-2.45690626 68.21901794 -9.89366757 71.96455586 -19 75 C-29.25295223 75.72276602 -38.30290435 76.21713174 -47 70 C-47.57878906 69.62746094 -48.15757812 69.25492188 -48.75390625 68.87109375 C-54.99655832 64.38076507 -58.66863023 56.38305052 -60 49 C-61.07477395 35.9208278 -58.59216701 24.75556993 -51 14 C-50.01 14.33 -49.02 14.66 -48 15 C-48.40992188 15.83402344 -48.81984375 16.66804688 -49.2421875 17.52734375 C-54.36864752 28.23404134 -58.50658911 39.01411452 -55.171875 50.96875 C-54.19254908 53.6874757 -53.13414276 56.34262901 -52 59 C-51.66097656 59.90878906 -51.32195312 60.81757812 -50.97265625 61.75390625 C-49.72965555 64.62428938 -48.86159176 64.83989523 -46 66 C-44.2480633 67.0127746 -42.51471352 68.05363845 -40.78125 69.09765625 C-33.74010621 72.66455146 -24.07581746 71.83999177 -16.6875 69.8125 C-6.89825716 66.38072989 0.78605426 60.26082995 5.578125 50.92578125 C10.49922536 39.42907265 12.19807751 27.16410714 7.8984375 15.11328125 C4.8468332 7.93537723 0.78737898 5.2888651 -6 2 C-6.66 1.67 -7.32 1.34 -8 1 C-19.46704248 0.0995066 -29.32476676 -0.05740906 -39 7 C-41.54294075 9.18152965 -43.84507601 11.43533694 -46 14 C-46.99 13.67 -47.98 13.34 -49 13 C-45.14896906 4.24417344 -36.46896722 0.31096941 -28 -3 C-18.84277773 -6.05240742 -8.57411497 -3.90330554 0 0 Z " fill="#1A281E" transform="translate(387,467)"/>
  <path d="M0 0 C4.12012735 3.06497279 7.38102858 7.25378702 8.2578125 12.40234375 C8.42174173 21.17255732 5.72954696 29.53052612 -0.390625 35.94140625 C-10.30630966 44.68648924 -22.16028631 47.68804427 -35.078125 47.4296875 C-34.418125 50.0696875 -33.758125 52.7096875 -33.078125 55.4296875 C-31.47130859 55.61144531 -31.47130859 55.61144531 -29.83203125 55.796875 C-28.43483748 55.96566351 -27.03770509 56.13496063 -25.640625 56.3046875 C-24.93357422 56.38332031 -24.22652344 56.46195313 -23.49804688 56.54296875 C-21.68139068 56.76896426 -19.87749978 57.09269477 -18.078125 57.4296875 C-17.748125 58.0896875 -17.418125 58.7496875 -17.078125 59.4296875 C-21.02490197 61.40307598 -25.77652023 60.87258898 -30.078125 60.4296875 C-33.35271547 58.82111674 -35.22204224 57.51924738 -37.453125 54.6796875 C-38.41128462 51.23031288 -38.19721012 48.00224124 -38.078125 44.4296875 C-37.14613281 44.34332031 -36.21414063 44.25695312 -35.25390625 44.16796875 C-22.72040671 42.78662249 -10.47732542 39.97770653 -1.390625 30.6796875 C2.99309441 24.51878454 4.66384054 18.97300381 3.921875 11.4296875 C2.53302252 8.61188216 2.53302252 8.61188216 0.921875 6.4296875 C0.921875 5.7696875 0.921875 5.1096875 0.921875 4.4296875 C-0.73797298 3.74622068 -2.40649305 3.08380435 -4.078125 2.4296875 C-4.944375 2.0584375 -5.810625 1.6871875 -6.703125 1.3046875 C-15.99922189 -1.10541169 -25.98991893 0.16214413 -34.515625 4.4921875 C-45.86529823 11.27818094 -53.43505498 20.42051216 -57.47387695 32.97216797 C-58.50006859 37.14576193 -58.51203753 41.21448342 -58.453125 45.4921875 C-58.46472656 46.33845703 -58.47632813 47.18472656 -58.48828125 48.05664062 C-58.45846976 54.50089167 -57.63824878 60.28716589 -53.4296875 65.453125 C-50.11174646 68.05042726 -47.17871712 70.18708383 -43.078125 71.4296875 C-44.765625 72.5546875 -44.765625 72.5546875 -47.078125 73.4296875 C-52.06198107 72.15177569 -55.83147265 69.53078697 -58.46875 65.0859375 C-63.62723837 55.00613264 -64.76538142 44.74617608 -62.20703125 33.65234375 C-57.41702604 19.43937747 -49.43692629 7.55355732 -35.890625 0.4921875 C-24.78960472 -4.78410664 -10.90215295 -6.47543984 0 0 Z " fill="#212E25" transform="translate(944.078125,466.5703125)"/>
  <path d="M0 0 C6.21004602 2.33042239 12.40894456 4.02686971 18.875 5.5 C19.74326416 5.70197998 20.61152832 5.90395996 21.50610352 6.11206055 C35.24677055 9.16089385 48.72815361 10.2230097 62.75 10.1875 C63.56775909 10.18695618 64.38551819 10.18641235 65.22805786 10.18585205 C91.10683461 10.10775243 116.18324573 6.32185647 141.47265625 1.08203125 C146.63717122 0.03865712 151.67105277 -0.90801113 156.9375 -1.1875 C157.9275 -0.1975 157.9275 -0.1975 158.9375 0.8125 C128.85164586 8.73215866 98.62433589 14.05029909 67.4375 14 C66.39101791 13.99909363 66.39101791 13.99909363 65.32339478 13.99816895 C42.46491518 13.94472245 20.4652031 11.67701514 -1.10229492 3.74316406 C-5.23601601 2.25289551 -8.59456298 1.41178816 -13.0625 1.8125 C-13.7225 2.1425 -14.3825 2.4725 -15.0625 2.8125 C-17.62308036 3.2387523 -20.18140227 3.6280593 -22.75 4 C-29.14025171 4.95803019 -35.49183884 6.06161247 -41.83203125 7.30859375 C-42.50844162 7.44152328 -43.18485199 7.57445282 -43.88175964 7.71141052 C-47.26771115 8.37946402 -50.6516091 9.05676402 -54.03393555 9.74291992 C-70.49493494 13.0208905 -70.49493494 13.0208905 -76.0625 12.8125 C-76.7225 12.1525 -77.3825 11.4925 -78.0625 10.8125 C-73.17284042 9.35071244 -68.29179081 8.18387748 -63.27734375 7.2265625 C-62.54702942 7.08463974 -61.81671509 6.94271698 -61.06427002 6.79649353 C-58.71015557 6.34009345 -56.35516582 5.88844082 -54 5.4375 C-52.37604745 5.12497313 -50.75210545 4.81239146 -49.12817383 4.49975586 C-45.15709629 3.73662347 -41.18506456 2.97859285 -37.21264648 2.22247314 C-35.25533402 1.84926809 -33.29853643 1.47336527 -31.34179688 1.09716797 C-28.31251459 0.5158223 -25.28178209 -0.0568582 -22.25 -0.625 C-20.97467407 -0.87032471 -20.97467407 -0.87032471 -19.67358398 -1.12060547 C-12.56071167 -2.42923975 -6.83059567 -2.80650264 0 0 Z " fill="#1A2B1F" transform="translate(141.0625,580.1875)"/>
  <path d="M0 0 C0.7528125 -0.03738281 1.505625 -0.07476562 2.28125 -0.11328125 C5.45245191 0.49527686 6.58139375 1.7572262 8.5 4.3125 C9.97915388 12.52305754 9.1587811 25.32432834 4.5 32.3125 C3.84 32.3125 3.18 32.3125 2.5 32.3125 C2.644375 31.28511719 2.78875 30.25773437 2.9375 29.19921875 C4.60256037 17.30062147 4.60256037 17.30062147 4.5 5.3125 C4.17 4.9825 3.84 4.6525 3.5 4.3125 C-4.76015529 4.38625139 -13.50496747 6.94060467 -20.5 11.3125 C-21.46044102 13.38940578 -21.46044102 13.38940578 -21.5 15.3125 C-20.695625 15.76625 -19.89125 16.22 -19.0625 16.6875 C-16.5 18.3125 -16.5 18.3125 -15.5 20.3125 C-14.84233363 27.3950609 -15.71358336 34.12342168 -17 41.0625 C-18.08807912 47.07526725 -18.84566612 52.94693782 -18.9375 59.0625 C-18.95683594 60.31546875 -18.97617187 61.5684375 -18.99609375 62.859375 C-18.40226199 66.99281815 -17.1571156 69.11835753 -14.5 72.3125 C-9.61798458 75.78663131 -3.16213476 75.11965538 2.5 74.3125 C7.97531917 72.46979106 14.22596369 69.78591864 18.1484375 65.51953125 C18.59445312 65.12121094 19.04046875 64.72289062 19.5 64.3125 C20.82 64.6425 22.14 64.9725 23.5 65.3125 C24.16 67.9525 24.82 70.5925 25.5 73.3125 C34.16447623 74.01124808 40.14014978 71.69138392 47 66.375 C48.85499166 63.82438646 49.67425596 61.34022815 50.5 58.3125 C51.16 58.6425 51.82 58.9725 52.5 59.3125 C53 62.375 53 62.375 52.5 66.3125 C48.14040035 71.94662741 41.19667316 76.08695892 34.5 78.3125 C31.11358652 78.67334734 27.88675478 78.63676376 24.5 78.3125 C20.5 71.5625 20.5 71.5625 20.5 69.3125 C19.77554688 69.79460937 19.05109375 70.27671875 18.3046875 70.7734375 C17.33789062 71.40507813 16.37109375 72.03671875 15.375 72.6875 C14.42367187 73.31398438 13.47234375 73.94046875 12.4921875 74.5859375 C4.8262161 79.00938314 -2.82456964 79.18655193 -11.5 78.3125 C-15.78717501 76.99238333 -18.30530477 75.02067456 -20.86328125 71.36328125 C-25.87433068 61.77168492 -23.31285774 50.71695315 -21.5 40.5625 C-19.58807961 30.99327042 -19.58807961 30.99327042 -19.5 21.3125 C-21.48075027 19.95073419 -23.48079663 18.61656884 -25.5 17.3125 C-26.1875 14.375 -26.1875 14.375 -25.5 11.3125 C-20.37794335 3.81234562 -8.81307891 0.28672688 0 0 Z " fill="#212F25" transform="translate(765.5,463.6875)"/>
  <path d="M0 0 C2.41869578 1.1589584 4.12322096 2.12322096 6 4 C6.34950246 9.24253687 6.57053577 12.83437493 3 17 C-1.58067819 19.98276719 -5.67458345 20.54091237 -11 21 C-10.34 22.32 -9.68 23.64 -9 25 C-4.53160785 25.21278058 -1.17737474 24.59138085 3 23 C3.8125 24.6875 3.8125 24.6875 4 27 C1.10895996 30.57128476 -1.53237506 32.8571192 -6 34 C-10.90750817 34.46738173 -13.00915801 34.53211885 -17.375 32.1875 C-20.5635822 29.53034817 -21.89042533 28.02566991 -22.3359375 23.85546875 C-22.46665406 11.58118365 -22.46665406 11.58118365 -18 7 C-12.01689001 1.39000154 -8.3670999 -0.85260603 0 0 Z " fill="#276B46" transform="translate(977,574)"/>
  <path d="M0 0 C3.125 1.5 3.125 1.5 5 4 C5.55058877 8.33588659 5.48336951 10.79157624 3.875 14.8125 C-0.45421872 19.86325517 -5.73210621 20.45966433 -12 21 C-11.67 22.32 -11.34 23.64 -11 25 C-9.741875 25.04125 -8.48375 25.0825 -7.1875 25.125 C-6.47980469 25.14820313 -5.77210938 25.17140625 -5.04296875 25.1953125 C-2.68640281 25.13254462 -2.68640281 25.13254462 0 23 C0.99 23 1.98 23 3 23 C2.82620356 26.82352164 2.41487803 28.56207319 -0.25 31.375 C-5.15467036 34.21517408 -11.57882095 33.92275388 -17 33 C-19.6993225 31.18807513 -21.54054976 29.91890047 -23 27 C-23.93166347 15.08692617 -23.93166347 15.08692617 -21.4375 9.5 C-14.55156984 2.43750753 -10.1790512 -1.10259738 0 0 Z " fill="#246844" transform="translate(846,574)"/>
  <path d="M0 0 C0 3 0 3 -2 6 C-2.66 6 -3.32 6 -4 6 C-4.66 7.98 -5.32 9.96 -6 12 C-5.505 12.495 -5.505 12.495 -5 13 C-4.01 12.67 -3.02 12.34 -2 12 C-1.505 12.99 -1.505 12.99 -1 14 C1.64 13.67 4.28 13.34 7 13 C4.11970643 15.28552297 1.2169425 16.97320422 -2.0625 18.625 C-18.40998665 27.50619115 -28.34549112 40.98169325 -35 58 C-35.65355469 59.65322266 -35.65355469 59.65322266 -36.3203125 61.33984375 C-39.0791314 69.76099375 -39.375874 77.8779738 -39.4375 86.6875 C-39.44773193 87.81575195 -39.45796387 88.94400391 -39.46850586 90.10644531 C-39.35946255 100.54715118 -37.39256215 109.91906183 -32.671875 119.2578125 C-32.45015625 119.83273437 -32.2284375 120.40765625 -32 121 C-32.33 121.66 -32.66 122.32 -33 123 C-42.9508865 108.07367025 -45.06194377 87.02382914 -42 69.6875 C-41.67852014 68.12251819 -41.34988809 66.55887642 -41 65 C-40.34 65 -39.68 65 -39 65 C-38.80664062 64.11957031 -38.61328125 63.23914063 -38.4140625 62.33203125 C-38.15367187 61.17058594 -37.89328125 60.00914062 -37.625 58.8125 C-37.36976563 57.66394531 -37.11453125 56.51539063 -36.8515625 55.33203125 C-36.1032856 52.40414046 -35.1787215 49.77430793 -34 47 C-33.67 46.01 -33.34 45.02 -33 44 C-33.66 43.67 -34.32 43.34 -35 43 C-34.34 43 -33.68 43 -33 43 C-32.67 41.68 -32.34 40.36 -32 39 C-36.23084903 40.68807908 -36.23084903 40.68807908 -39 44 C-39.66 44 -40.32 44 -41 44 C-41.25523437 44.71542969 -41.51046875 45.43085938 -41.7734375 46.16796875 C-43.0876888 49.20246618 -44.69496016 51.63188911 -46.625 54.3125 C-47.25664062 55.19550781 -47.88828125 56.07851563 -48.5390625 56.98828125 C-49.02117187 57.65214844 -49.50328125 58.31601562 -50 59 C-50.66 58.67 -51.32 58.34 -52 58 C-44.52588884 46.33061119 -35.99256091 35.93072837 -26.56640625 25.7890625 C-24.42501785 23.46189155 -22.35657371 21.09941385 -20.3125 18.6875 C-16.86714545 14.71838609 -13.00108838 11.39286432 -9 8 C-7.32975402 6.52487622 -5.66307057 5.04570871 -4 3.5625 C-3.236875 2.88316406 -2.47375 2.20382812 -1.6875 1.50390625 C-1.130625 1.00761719 -0.57375 0.51132812 0 0 Z " fill="#EEBD2E" transform="translate(182,404)"/>
  <path d="M0 0 C2.6875 1.5 2.6875 1.5 4 4 C4.42322675 6.85536982 4.28387626 9.06661196 4 12 C2 14 2 14 -0.625 14.125 C-1.40875 14.08375 -2.1925 14.0425 -3 14 C-3.99 11.69 -4.98 9.38 -6 7 C-6.99 7 -7.98 7 -9 7 C-12.11647527 12.06427231 -12.5729774 16.21513205 -12 22 C-11.67 22.99 -11.34 23.98 -11 25 C-6.52572076 25.08948558 -2.39436211 24.85743651 2 24 C1.80504041 27.50927259 1.20351779 28.79648221 -1.3125 31.3125 C-6.06977484 34.12309337 -11.70000965 33.86278913 -17 33 C-20.22337712 31.35492429 -22.35880657 29.28238685 -24 26 C-24.74592893 19.07351705 -24.70159061 13.42792305 -20.50390625 7.6875 C-14.33064078 0.76061511 -9.19358199 -0.93701205 0 0 Z " fill="#266945" transform="translate(878,574)"/>
  <path d="M0 0 C3.00008557 1.66671421 5.39544866 3.70453284 6.875 6.875 C6.91625 7.57625 6.9575 8.2775 7 9 C7.103125 10.03125 7.20625 11.0625 7.3125 12.125 C6.6244421 20.65691797 3.42322316 26.36037527 -3 31.91796875 C-5 33 -5 33 -7.25 32.67578125 C-8.11625 32.34126953 -8.11625 32.34126953 -9 32 C-8.01 31.67 -7.02 31.34 -6 31 C-5.67 30.01 -5.34 29.02 -5 28 C-6.2375 28.20625 -7.475 28.4125 -8.75 28.625 C-12.20319878 29.20053313 -13.98029681 28.78189692 -17 27 C-16.57312017 25.10174715 -16.13300518 23.20646817 -15.6875 21.3125 C-15.44386719 20.25675781 -15.20023438 19.20101562 -14.94921875 18.11328125 C-13.56874228 13.58554568 -11.50765398 10.1735917 -8 7 C-8.33 6.01 -8.66 5.02 -9 4 C-10.32 4.33 -11.64 4.66 -13 5 C-8.63209608 0.48649929 -6.44650777 -0.64465078 0 0 Z " fill="#296A47" transform="translate(814,574)"/>
  <path d="M0 0 C2.6875 1 2.6875 1 4.6875 4 C4.50138217 7.47419955 4.30466038 10.05956514 2.375 13 C0.6875 14 0.6875 14 -1.25 13.75 C-1.930625 13.5025 -2.61125 13.255 -3.3125 13 C-4.64365034 12.65805312 -5.97674243 12.323482 -7.3125 12 C-7.43367187 12.67804687 -7.55484375 13.35609375 -7.6796875 14.0546875 C-8.03007474 16.0006843 -8.38448981 17.94595868 -8.7421875 19.890625 C-9.11063106 21.89939948 -9.47061214 23.90975293 -9.8203125 25.921875 C-10.06394531 27.25992188 -10.06394531 27.25992188 -10.3125 28.625 C-10.456875 29.44226563 -10.60125 30.25953125 -10.75 31.1015625 C-10.935625 31.72804688 -11.12125 32.35453125 -11.3125 33 C-14.52701269 34.60725635 -17.74862536 34.05748185 -21.3125 34 C-20.74004306 25.65674459 -20.11100617 17.32485153 -19.3125 9 C-20.3025 8.67 -21.2925 8.34 -22.3125 8 C-22.3125 6.68 -22.3125 5.36 -22.3125 4 C-18.4679435 0.73795206 -15.2178984 0.71144715 -10.3125 1 C-10.3125 2.32 -10.3125 3.64 -10.3125 5 C-9.87679687 4.62746094 -9.44109375 4.25492188 -8.9921875 3.87109375 C-4.11903951 0 -4.11903951 0 0 0 Z " fill="#296A47" transform="translate(757.3125,639)"/>
  <path d="M0 0 C1.75 0.875 1.75 0.875 3.75 3.875 C4.471875 3.215 5.19375 2.555 5.9375 1.875 C8.75 -0.125 8.75 -0.125 11.375 -0.625 C13.75 -0.125 13.75 -0.125 15.625 1.4375 C17.23848019 4.93337375 16.68585076 7.19844345 15.75 10.875 C14.1875 12.8125 14.1875 12.8125 12.75 13.875 C8 12 8 12 5.75 10.875 C5.29117773 12.85405338 4.83297092 14.83324944 4.375 16.8125 C4.10042969 17.99199219 3.82585938 19.17148437 3.54296875 20.38671875 C2.88220796 23.29341524 2.27745727 26.20353158 1.6875 29.125 C1.378125 30.3625 1.06875 31.6 0.75 32.875 C-2.46451269 34.48225635 -5.68612536 33.93248185 -9.25 33.875 C-9.0334375 32.1115625 -9.0334375 32.1115625 -8.8125 30.3125 C-8.61888845 28.50064265 -8.43248614 26.68801167 -8.25 24.875 C-8.05470703 22.97814453 -8.05470703 22.97814453 -7.85546875 21.04296875 C-7.73539628 19.69545261 -7.61690965 18.34779423 -7.5 17 C-7.38140625 15.72382812 -7.2628125 14.44765625 -7.140625 13.1328125 C-6.93412291 9.89930198 -6.93412291 9.89930198 -8.734375 7.9296875 C-9.23453125 7.58164062 -9.7346875 7.23359375 -10.25 6.875 C-9.1700311 3.74309018 -8.24049526 2.86900788 -5.375 1.0625 C-2.25 -0.125 -2.25 -0.125 0 0 Z " fill="#296A47" transform="translate(939.25,639.125)"/>
  <path d="M0 0 C-0.99 0.495 -0.99 0.495 -2 1 C-2 1.66 -2 2.32 -2 3 C-1.34 3.66 -0.68 4.32 0 5 C-0.78375 5.5775 -1.5675 6.155 -2.375 6.75 C-4.94020963 8.94875111 -5.83373744 9.93316141 -7 13 C-7.24073194 15.82085728 -7.24073194 15.82085728 -7.125 18.75 C-7.09792969 20.22726562 -7.09792969 20.22726562 -7.0703125 21.734375 C-7.04710937 22.48203125 -7.02390625 23.2296875 -7 24 C-5.02 24.99 -3.04 25.98 -1 27 C-3.09972125 29.70931774 -4.76484305 31.71428754 -8.1953125 32.5078125 C-12.61133546 32.7264275 -12.61133546 32.7264275 -15 32 C-17.85407783 29.31000678 -18.89392743 27.61229475 -19.56640625 23.73046875 C-19.55803075 16.13388939 -19.23642407 10.73381527 -14 5 C-13.54238281 4.47535156 -13.08476563 3.95070313 -12.61328125 3.41015625 C-8.55360141 -0.60503395 -5.35133061 -0.4613216 0 0 Z " fill="#246844" transform="translate(921,575)"/>
  <path d="M0 0 C-3.01151015 2.00767343 -4.87599363 2.58853519 -8.35546875 3.3671875 C-9.98524658 3.73336182 -9.98524658 3.73336182 -11.64794922 4.10693359 C-12.81600098 4.36039551 -13.98405273 4.61385742 -15.1875 4.875 C-16.38391113 5.13748535 -17.58032227 5.3999707 -18.81298828 5.67041016 C-26.96982548 7.42728393 -35.14606903 8.9957353 -43.375 10.375 C-44.37168701 10.54241699 -45.36837402 10.70983398 -46.39526367 10.88232422 C-53.64348814 12.05003436 -58.87520531 12.23522971 -66 10 C-66 9.67 -66 9.34 -66 9 C-65.24307861 8.91024902 -64.48615723 8.82049805 -63.70629883 8.72802734 C-60.07339427 8.28964394 -56.44240628 7.8374486 -52.8125 7.375 C-52.14660858 7.29029449 -51.48071716 7.20558899 -50.79464722 7.11831665 C-39.18515312 5.61902389 -27.81332376 3.47778445 -16.4074707 0.84326172 C-10.56404384 -0.46506116 -5.86310046 -1.45937435 0 0 Z " fill="#212F25" transform="translate(300,580)"/>
  <path d="M0 0 C3.63 0 7.26 0 11 0 C9.68 0.33 8.36 0.66 7 1 C7 1.66 7 2.32 7 3 C5.68 3 4.36 3 3 3 C3.66 5.64 4.32 8.28 5 11 C6.07121094 11.12117187 7.14242187 11.24234375 8.24609375 11.3671875 C9.64328752 11.53597601 11.04041991 11.70527313 12.4375 11.875 C13.49807617 11.99294922 13.49807617 11.99294922 14.58007812 12.11328125 C16.39673432 12.33927676 18.20062522 12.66300727 20 13 C20.33 13.66 20.66 14.32 21 15 C17.05322303 16.97338848 12.30160477 16.44290148 8 16 C4.72540953 14.39142924 2.85608276 13.08955988 0.625 10.25 C-0.33315962 6.80062538 -0.11908512 3.57255374 0 0 Z " fill="#1A2B1F" transform="translate(906,511)"/>
  <path d="M0 0 C1.68780292 3.25555291 2.84050406 6.52151219 4 10 C5.66342837 11.66342837 7.7825709 11.36048097 10.0625 11.5625 C10.98160156 11.64628906 11.90070312 11.73007812 12.84765625 11.81640625 C13.55792969 11.87699219 14.26820313 11.93757812 15 12 C15 12.99 15 13.98 15 15 C13.2507786 15.08142927 11.50045458 15.13938541 9.75 15.1875 C8.28820312 15.23970703 8.28820312 15.23970703 6.796875 15.29296875 C3.50228681 14.94786524 2.19571526 14.48571539 0 12 C-0.390625 9.08203125 -0.390625 9.08203125 -0.25 5.8125 C-0.21390625 4.72582031 -0.1778125 3.63914062 -0.140625 2.51953125 C-0.09421875 1.68808594 -0.0478125 0.85664062 0 0 Z " fill="#1A281E" transform="translate(639,527)"/>
  <path d="M0 0 C0.85851562 0.33451172 0.85851562 0.33451172 1.734375 0.67578125 C-1.96653021 4.60098375 -5.81522156 7.62158281 -10.265625 10.67578125 C-10.265625 9.00911458 -10.265625 7.34244792 -10.265625 5.67578125 C-8.65625 4.1328125 -8.65625 4.1328125 -6.515625 2.48828125 C-5.81953125 1.93785156 -5.1234375 1.38742187 -4.40625 0.8203125 C-2.265625 -0.32421875 -2.265625 -0.32421875 0 0 Z " fill="#212F25" transform="translate(166.265625,395.32421875)"/>
  <path d="M0 0 C3.10712212 0.78637041 6.09244107 1.63924116 9 3 C10.5625 5.6875 10.5625 5.6875 11 8 C10.40832031 7.72285156 9.81664062 7.44570313 9.20703125 7.16015625 C3.30953569 4.44225847 3.30953569 4.44225847 -3 3 C-2.01 2.01 -1.02 1.02 0 0 Z " fill="#1A281E" transform="translate(300,464)"/>
  <path d="M0 0 C0.598125 0.804375 1.19625 1.60875 1.8125 2.4375 C3.80947276 5.22327984 3.80947276 5.22327984 7 6 C7 6.99 7 7.98 7 9 C4.1875 8.875 4.1875 8.875 1 8 C-0.875 4.9375 -0.875 4.9375 -2 2 C-1.34 2 -0.68 2 0 2 C0 1.34 0 0.68 0 0 Z " fill="#1F2D23" transform="translate(720,481)"/>
  <path d="M0 0 C3.82097239 0.53069061 6.06171403 1.49701566 9 4 C8.67 5.32 8.34 6.64 8 8 C6.66102417 7.04956626 5.32894573 6.08940853 4 5.125 C3.2575 4.59132813 2.515 4.05765625 1.75 3.5078125 C1.1725 3.01023437 0.595 2.51265625 0 2 C0 1.34 0 0.68 0 0 Z " fill="#212F25" transform="translate(693,506)"/>
  <path d="M0 0 C2.95183101 2.95183101 3.08663988 5.95511947 4 10 C2.68 9.67 1.36 9.34 0 9 C-1.10844919 5.67465243 -0.84454356 3.37817425 0 0 Z " fill="#1A2B1F" transform="translate(744,524)"/>
  <path d="M0 0 C0 0.66 0 1.32 0 2 C1.32 2.66 2.64 3.32 4 4 C2.35 4.33 0.7 4.66 -1 5 C-1.99 3.68 -2.98 2.36 -4 1 C-2 0 -2 0 0 0 Z " fill="#212F25" transform="translate(911,520)"/>
</svg>